<svg width="382" height="371" viewBox="0 0 382 371" fill="none" xmlns="http://www.w3.org/2000/svg">
<g filter="url(#filter0_d_29_30)">
<rect x="176.242" y="106.341" width="6.77854" height="6.77854" rx="3.38927" fill="#1983FF"/>
</g>
<g filter="url(#filter1_d_29_30)">
<rect x="359.715" y="193.558" width="6.77854" height="6.77854" rx="3.38927" fill="#1983FF"/>
</g>
<g filter="url(#filter2_d_29_30)">
<rect x="287.41" y="262.247" width="6.77854" height="6.77854" rx="3.38927" fill="url(#paint0_linear_29_30)"/>
</g>
<g filter="url(#filter3_d_29_30)">
<rect x="158.618" y="256.824" width="14.009" height="14.009" rx="7.0045" fill="#1983FF"/>
</g>
<g filter="url(#filter4_d_29_30)">
<rect x="283.343" y="236.037" width="8.13425" height="8.13425" rx="4.06713" fill="url(#paint1_linear_29_30)"/>
</g>
<g filter="url(#filter5_d_29_30)">
<rect x="65.5261" y="235.584" width="8.13425" height="8.13425" rx="4.06713" fill="#1983FF"/>
</g>
<g filter="url(#filter6_d_29_30)">
<rect x="240.412" y="272.641" width="4.06713" height="4.06713" rx="2.03356" fill="#1983FF"/>
</g>
<path d="M203.567 41.2218C203.567 41.2218 163.686 42.5121 153.593 60.8978C143.762 78.8035 162.444 112.449 162.444 112.449C162.444 112.449 189.732 157.357 182.21 186.218C169.367 235.488 87.3976 184.585 58.1281 226.247C25.532 272.645 75.8996 370.352 75.8996 370.352" stroke="#1983FF" stroke-width="0.527835"/>
<path d="M334.163 345.688C334.163 345.688 361.45 316.576 355.587 296.438C349.877 276.826 312.876 266.244 312.876 266.244C312.876 266.244 261.825 253.785 246.737 228.059C220.979 184.139 314.934 162.171 306.171 112.015C296.412 56.1579 191.707 22.6833 191.707 22.6833" stroke="#1983FF" stroke-width="0.791752"/>
<circle cx="248.547" cy="168.703" r="2.71142" fill="#1983FF"/>
<circle cx="262.104" cy="185.732" r="2.71142" fill="#1983FF"/>
<circle cx="270.69" cy="185.733" r="1.35571" fill="#1983FF"/>
<circle cx="268.175" cy="191.803" r="1.35571" transform="rotate(45 268.175 191.803)" fill="#1983FF"/>
<circle cx="261.958" cy="194.318" r="1.35571" transform="rotate(90 261.958 194.318)" fill="#1983FF"/>
<circle cx="255.887" cy="191.804" r="1.35571" transform="rotate(135 255.887 191.804)" fill="#1983FF"/>
<circle cx="253.517" cy="185.733" r="1.35571" fill="#1983FF"/>
<circle cx="256.032" cy="179.661" r="1.35571" transform="rotate(45 256.032 179.661)" fill="#1983FF"/>
<circle cx="261.958" cy="177.146" r="1.35571" transform="rotate(90 261.958 177.146)" fill="#1983FF"/>
<circle cx="268.029" cy="179.661" r="1.35571" transform="rotate(135 268.029 179.661)" fill="#1983FF"/>
<path d="M232.833 256.578L235.196 257.001C237.707 257.448 239.378 259.847 238.93 262.358L238.496 264.782C238.048 267.293 235.649 268.964 233.139 268.516L230.775 268.093C228.265 267.645 226.593 265.245 227.042 262.735L227.475 260.311C227.923 257.8 230.323 256.129 232.833 256.578ZM248.557 191.342C254.698 192.439 258.951 195.472 261.316 200.439C263.2 204.362 263.723 208.666 262.886 213.353C261.485 221.192 256.602 228.012 248.239 233.813C245.323 235.836 243.492 238.469 242.745 241.713C242.469 242.789 242.212 243.994 241.974 245.328C241.525 247.838 239.126 249.51 236.616 249.061L234.252 248.638C231.741 248.189 230.07 245.791 230.518 243.28V243.28C231.797 236.128 234.504 231.13 238.64 228.283C243.11 225.204 246.405 221.812 248.527 218.104C249.747 215.946 250.584 213.594 251.04 211.048C251.509 208.422 251.291 206.257 250.387 204.551C249.403 202.584 247.651 201.541 245.129 201.423C242.775 201.295 240.833 202.595 239.304 205.324C239.226 205.455 239.151 205.59 239.077 205.728C237.993 207.745 235.585 208.652 233.435 207.866L231.328 207.094C228.72 206.14 227.531 203.107 228.805 200.64C230.071 198.187 231.741 196.107 233.814 194.397C236.061 192.549 238.929 191.434 242.416 191.057C244.246 190.843 246.294 190.936 248.557 191.342Z" fill="#AEDBED"/>
<path d="M143.079 266.251L145.042 266.345C147.127 266.444 148.737 268.215 148.637 270.299L148.541 272.313C148.442 274.397 146.671 276.007 144.587 275.908L142.624 275.815C140.539 275.715 138.93 273.945 139.029 271.86L139.125 269.846C139.224 267.761 140.995 266.152 143.079 266.251ZM148.959 211.645C154.058 211.888 157.83 213.901 160.273 217.683C162.216 220.668 163.095 224.107 162.91 227.999C162.6 234.508 159.357 240.559 153.181 246.15C151.028 248.099 149.82 250.429 149.556 253.141C149.445 254.043 149.363 255.048 149.31 256.156C149.211 258.241 147.441 259.85 145.356 259.752L143.393 259.658C141.308 259.558 139.699 257.788 139.797 255.703C140.08 249.764 141.75 245.421 144.807 242.674C148.109 239.704 150.426 236.603 151.757 233.37C152.52 231.489 152.951 229.492 153.052 227.378C153.156 225.197 152.75 223.463 151.836 222.175C150.831 220.681 149.298 220.02 147.24 220.19C145.316 220.334 143.877 221.594 142.923 223.97C142.874 224.085 142.827 224.203 142.781 224.323C142.115 226.074 140.256 227.064 138.429 226.652L136.637 226.249C134.419 225.749 133.135 223.414 133.908 221.277C134.677 219.152 135.812 217.288 137.314 215.682C138.944 213.944 141.154 212.737 143.944 212.063C145.407 211.695 147.079 211.556 148.959 211.645Z" fill="#AEDBED"/>
<path d="M177.701 187.679L179.198 187.417C180.788 187.137 182.303 188.2 182.581 189.79L182.851 191.325C183.13 192.914 182.067 194.429 180.478 194.708L178.981 194.97C177.392 195.25 175.876 194.187 175.598 192.597L175.328 191.063C175.049 189.473 176.112 187.958 177.701 187.679ZM172.869 145.488C176.757 144.806 179.944 145.684 182.429 148.123C184.401 150.045 185.648 152.489 186.169 155.457C187.04 160.42 185.62 165.535 181.911 170.801C180.617 172.637 180.101 174.599 180.362 176.69C180.432 177.39 180.541 178.162 180.689 179.006C180.968 180.596 179.905 182.11 178.316 182.389L176.819 182.651C175.23 182.931 173.715 181.868 173.436 180.278C172.641 175.75 173.164 172.191 175.004 169.6C176.99 166.799 178.212 164.066 178.668 161.401C178.923 159.853 178.91 158.273 178.627 156.661C178.335 154.998 177.735 153.759 176.827 152.943C175.815 151.986 174.547 151.747 173.023 152.226C171.596 152.66 170.723 153.855 170.408 155.81C170.39 155.905 170.375 156.001 170.361 156.1C170.155 157.533 168.921 158.597 167.473 158.596L166.053 158.595C164.295 158.595 162.929 157.051 163.15 155.307C163.369 153.575 163.909 151.976 164.77 150.51C165.705 148.921 167.167 147.636 169.157 146.654C170.198 146.129 171.436 145.74 172.869 145.488Z" fill="#AEDBED"/>
<path d="M68.1837 232.771L69.1775 233.028C70.2324 233.301 70.8658 234.378 70.5928 235.433L70.3289 236.451C70.0558 237.507 68.979 238.14 67.924 237.867L66.9303 237.61C65.8753 237.337 65.2419 236.26 65.515 235.206L65.7789 234.186C66.052 233.131 67.1288 232.497 68.1837 232.771ZM77.0148 205.488C79.5955 206.158 81.3085 207.588 82.1545 209.782C82.8287 211.515 82.911 213.367 82.4008 215.336C81.5478 218.63 79.245 221.377 75.4918 223.576C74.1835 224.341 73.3171 225.403 72.8927 226.762C72.74 227.211 72.5908 227.715 72.4458 228.276C72.1728 229.331 71.096 229.965 70.041 229.691L69.048 229.435C67.993 229.161 67.3589 228.085 67.632 227.03C68.4103 224.024 69.7271 221.983 71.583 220.905C73.5874 219.739 75.1026 218.401 76.128 216.891C76.7178 216.011 77.152 215.037 77.4286 213.966C77.7143 212.863 77.6925 211.934 77.3624 211.177C77.0084 210.306 76.2955 209.805 75.225 209.673C74.2264 209.541 73.3565 210.031 72.6154 211.144C72.5781 211.198 72.5415 211.253 72.5056 211.309C71.9778 212.133 70.9221 212.44 70.0319 212.036L69.1599 211.638C68.0796 211.145 67.6714 209.815 68.2956 208.805C68.915 207.802 69.694 206.97 70.6329 206.309C71.6513 205.595 72.9096 205.214 74.408 205.167C75.1948 205.135 76.064 205.243 77.0148 205.488Z" fill="#AEDBED"/>
<path d="M107.215 237.125L110.282 236.337C113.539 235.5 116.858 237.463 117.694 240.72L118.502 243.865C119.338 247.122 117.376 250.441 114.118 251.278L111.051 252.065C107.794 252.901 104.476 250.939 103.639 247.682L102.832 244.536C101.995 241.279 103.958 237.961 107.215 237.125ZM90.3581 150.257C98.3256 148.211 105.088 149.521 110.645 154.184C115.052 157.859 118.037 162.736 119.599 168.817C122.21 178.988 120.088 189.842 113.232 201.381C110.841 205.404 110.086 209.565 110.967 213.865C111.224 215.307 111.576 216.894 112.02 218.624C112.857 221.881 110.894 225.2 107.637 226.036L104.57 226.823C101.313 227.66 97.9941 225.698 97.1581 222.441C94.7751 213.161 95.286 205.683 98.6888 200.002C102.364 193.862 104.46 187.988 104.976 182.378C105.257 179.121 104.974 175.841 104.125 172.538C103.251 169.132 101.804 166.653 99.786 165.103C97.5289 163.281 94.8553 162.989 91.7657 164.229C88.8725 165.364 87.2538 167.986 86.9131 172.097C86.8934 172.297 86.8765 172.501 86.8632 172.708C86.6668 175.719 84.2754 178.127 81.266 178.36L78.3158 178.588C74.6645 178.871 71.5778 175.885 71.7544 172.226C71.9304 168.592 72.7939 165.181 74.345 161.997C76.0285 158.548 78.8591 155.641 82.8354 153.278C84.9144 152.019 87.4213 151.011 90.3581 150.257Z" fill="#AEDBED"/>
<path d="M307.937 239.15L310.105 238.593C312.406 238.002 314.751 239.389 315.342 241.691L315.913 243.914C316.504 246.215 315.118 248.56 312.816 249.151L310.648 249.708C308.347 250.299 306.002 248.912 305.411 246.611L304.84 244.387C304.249 242.086 305.635 239.741 307.937 239.15ZM296.025 177.763C301.655 176.317 306.435 177.243 310.361 180.538C313.476 183.135 315.585 186.582 316.689 190.878C318.534 198.065 317.034 205.737 312.189 213.891C310.5 216.733 309.966 219.673 310.589 222.713C310.771 223.732 311.019 224.853 311.333 226.076C311.924 228.377 310.537 230.722 308.236 231.313L306.068 231.87C303.767 232.461 301.422 231.074 300.83 228.773C299.146 222.216 299.507 216.931 301.912 212.916C304.509 208.578 305.99 204.426 306.355 200.462C306.554 198.16 306.354 195.842 305.754 193.508C305.136 191.101 304.114 189.349 302.688 188.254C301.092 186.967 299.203 186.76 297.02 187.636C294.975 188.438 293.831 190.291 293.591 193.196C293.576 193.338 293.565 193.482 293.555 193.627C293.417 195.756 291.726 197.457 289.6 197.622L287.515 197.784C284.934 197.984 282.753 195.874 282.878 193.288C283.002 190.719 283.612 188.31 284.709 186.058C285.899 183.621 287.899 181.567 290.709 179.898C292.177 179.008 293.95 178.295 296.025 177.763Z" fill="#AEDBED"/>
<path d="M298.024 137.305L299.222 136.998C300.494 136.671 301.791 137.437 302.117 138.709L302.433 139.938C302.76 141.211 301.993 142.507 300.721 142.833L299.522 143.141C298.25 143.468 296.954 142.701 296.628 141.429L296.312 140.2C295.985 138.928 296.752 137.632 298.024 137.305ZM291.44 103.374C294.552 102.574 297.194 103.086 299.363 104.908C301.086 106.343 302.251 108.248 302.861 110.624C303.881 114.596 303.053 118.836 300.374 123.343C299.441 124.915 299.146 126.54 299.489 128.22C299.59 128.783 299.727 129.403 299.901 130.078C300.228 131.351 299.461 132.647 298.189 132.974L296.991 133.281C295.719 133.608 294.422 132.841 294.096 131.57C293.165 127.944 293.364 125.024 294.694 122.805C296.13 120.406 296.948 118.112 297.149 115.92C297.259 114.649 297.149 113.367 296.817 112.077C296.476 110.746 295.911 109.778 295.122 109.172C294.241 108.462 293.196 108.347 291.989 108.831C290.859 109.274 290.227 110.299 290.094 111.904C290.086 111.983 290.079 112.063 290.074 112.143C289.998 113.32 289.064 114.26 287.888 114.351L286.736 114.44C285.31 114.551 284.104 113.385 284.173 111.955C284.242 110.536 284.579 109.203 285.185 107.96C285.842 106.612 286.948 105.476 288.501 104.554C289.313 104.062 290.292 103.668 291.44 103.374Z" fill="#AEDBED"/>
<path d="M137.284 158.463C137.284 158.463 144.216 124.666 128.42 126.332L113.32 157.772C113.32 157.772 123.442 161.921 137.284 158.463Z" fill="#361710"/>
<path d="M102.09 158.463C102.09 158.463 98.2472 131.057 110.169 124.102L126.054 157.772C126.054 157.772 115.933 161.921 102.09 158.463Z" fill="#361710"/>
<path d="M77.6186 150.884H79.4569C81.4092 150.884 82.992 152.467 82.992 154.419V156.304C82.992 158.257 81.4092 159.839 79.4569 159.839H77.6186C75.6663 159.839 74.0842 158.257 74.0842 156.304V154.419C74.0842 152.467 75.6663 150.884 77.6186 150.884ZM80.6829 99.6057C85.458 99.6057 89.0712 101.318 91.5225 104.743C93.4705 107.445 94.4446 110.618 94.4446 114.263C94.4446 120.359 91.6836 126.156 86.1632 131.655C84.2377 133.571 83.213 135.802 83.087 138.348C83.0236 139.196 82.992 140.138 82.992 141.175C82.992 143.128 81.4092 144.71 79.4569 144.71H77.6186C75.6663 144.71 74.0842 143.128 74.0842 141.175C74.0842 135.614 75.451 131.483 78.1844 128.78C81.1375 125.857 83.1637 122.857 84.2644 119.777C84.8922 117.987 85.2068 116.102 85.2068 114.122C85.2068 112.079 84.7514 110.478 83.84 109.315C82.8343 107.964 81.3733 107.413 79.4569 107.665C77.6658 107.885 76.3771 109.126 75.5924 111.388C75.5516 111.498 75.5129 111.61 75.4756 111.724C74.9309 113.39 73.2383 114.398 71.5126 114.095L69.8207 113.797C67.7263 113.429 66.4222 111.305 67.0499 109.273C67.6735 107.254 68.6518 105.462 69.9833 103.894C71.4289 102.198 73.4396 100.972 76.0168 100.219C77.3674 99.8105 78.922 99.6057 80.6829 99.6057Z" fill="#1983FF"/>
<path d="M121.598 289.725C121.598 289.725 120.723 293.106 119.15 292.596C116.208 291.646 116.036 289.725 116.036 289.725C116.036 289.725 114.181 295.319 114.534 297.983C114.888 300.647 114.534 306.636 114.534 306.636H117.219C117.219 306.636 119.73 306.941 120.771 308.455C121.813 309.969 127.517 309.52 129.325 308.549C131.641 307.305 125.562 300.977 123.411 297.45C121.26 293.923 121.598 289.725 121.598 289.725Z" fill="#1C0906"/>
<path d="M116.574 239.945C118.429 235.363 125.047 235.414 126.679 240.08C126.973 240.921 127.187 241.801 127.326 242.692C128.012 247.068 127.323 254.08 125.517 263.036C123.079 275.12 121.761 299.226 117.528 299.581C113.294 299.936 115.783 279.665 115.694 267.679C115.606 255.692 113.717 247.001 116.398 240.382L116.574 239.945Z" fill="#CF9166"/>
<path d="M119.009 274.523C118.43 258.711 119.482 246.982 116.96 238.645L116.794 238.096C115.048 232.326 109.711 233.354 108.646 239.74C108.455 240.891 108.331 242.082 108.266 243.278C107.951 249.144 108.887 258.286 110.831 269.829C113.454 285.403 114.092 299.728 117.528 299.581C120.963 299.434 119.588 290.334 119.009 274.523Z" fill="#EDAC7C"/>
<path d="M114.213 292.506C114.213 292.506 114.961 298.477 117.045 298.116C119.095 297.761 119.774 292.506 119.774 292.506C119.774 292.506 121.63 298.099 121.276 300.763C121.077 302.264 121.103 304.821 121.162 306.767C121.207 308.218 120.043 309.415 118.591 309.415C118.591 309.415 116.08 309.721 115.039 311.235C113.998 312.749 108.294 312.3 106.486 311.329C104.169 310.085 110.249 303.757 112.4 300.23C114.55 296.703 114.213 292.506 114.213 292.506Z" fill="#361710"/>
<path d="M131.972 201.9L118.531 199.466V199.373L118.273 199.42L118.015 199.373V199.466L104.574 201.9C104.574 201.9 99.821 208.979 100.751 217.307C101.681 225.634 105.968 270.672 105.968 270.672H129.107C129.107 270.672 134.865 225.634 135.795 217.307C136.725 208.979 131.972 201.9 131.972 201.9Z" fill="#195172"/>
<path d="M133.574 204.899C132.726 203.024 131.973 201.899 131.973 201.899L118.531 199.466V199.372L118.273 199.419L118.016 199.372V199.466L104.574 201.899C104.574 201.899 103.821 203.024 102.973 204.899H133.574Z" fill="#0D435E"/>
<path d="M121.164 270.671L121.321 225.679L125.174 270.671" fill="#0D435E"/>
<path d="M100.64 214.62C101.944 214.582 104.142 214.323 107.322 213.317C112.898 211.554 112.945 204.193 112.945 204.193L112.796 200.412L104.574 201.9C104.574 201.9 100.811 207.512 100.64 214.62Z" fill="#0D435E"/>
<path d="M135.907 214.621C135.737 207.512 131.973 201.9 131.973 201.9L123.185 200.308L122.961 204.193C122.961 204.193 123.008 211.553 128.584 213.316C132.363 214.512 134.755 214.654 135.907 214.621Z" fill="#0D435E"/>
<path d="M105.325 163.719L114.874 159.839L122.368 159.92L134.077 164.803C134.077 164.803 127.973 185.783 128.375 191.196C128.777 196.61 131.972 202.736 131.972 202.736H105.325C105.325 202.736 110.096 193.083 109.049 187.389C108.001 181.694 105.325 163.719 105.325 163.719Z" fill="#5C93BC"/>
<path d="M127.728 130.92C124.488 124.858 107.358 122.711 104.209 141.77C101.912 155.66 117.539 158.936 125.46 156.392C138.936 152.065 130.969 136.983 127.728 130.92Z" fill="#3E150D"/>
<path d="M130.516 143.815C130.516 143.815 132.938 140.705 135.167 142.748C137.396 144.792 134.21 151.09 129.941 149.608L130.516 143.815Z" fill="#EDAC7C"/>
<path d="M130.299 146.01L130.002 148.993C133.695 149.656 135.802 144.514 134.103 143.801C132.73 143.224 131.025 145.028 130.299 146.01Z" fill="#F7A588"/>
<path d="M134.698 144.867C134.698 144.867 134.691 144.843 134.68 144.8C134.669 144.758 134.648 144.698 134.625 144.622C134.569 144.474 134.474 144.26 134.293 144.107C134.248 144.068 134.195 144.037 134.141 144.011C134.113 143.999 134.085 143.986 134.054 143.976L134.033 143.969L134.032 143.968C134.048 143.974 134.035 143.969 134.038 143.971L134.035 143.969L134.027 143.968L134.013 143.964L133.955 143.948C133.912 143.936 133.881 143.931 133.849 143.926C133.819 143.921 133.785 143.916 133.745 143.914C133.71 143.912 133.674 143.91 133.638 143.91C133.599 143.91 133.562 143.909 133.524 143.914C133.221 143.935 132.9 144.053 132.595 144.217C132.439 144.297 132.291 144.393 132.145 144.49C132.001 144.589 131.859 144.691 131.724 144.793C131.456 145.001 131.212 145.21 131.001 145.39C130.579 145.763 130.299 146.011 130.299 146.011C130.299 146.011 130.335 145.923 130.414 145.777C130.494 145.632 130.614 145.427 130.783 145.197C130.868 145.083 130.961 144.959 131.069 144.836C131.177 144.712 131.296 144.584 131.427 144.46C131.69 144.211 131.997 143.967 132.352 143.777C132.529 143.684 132.717 143.603 132.914 143.548C133.111 143.493 133.318 143.463 133.52 143.471C133.57 143.472 133.619 143.476 133.669 143.483C133.719 143.486 133.767 143.497 133.814 143.508C133.862 143.517 133.909 143.531 133.958 143.547C134.008 143.563 134.054 143.578 134.087 143.596L134.142 143.622L134.178 143.638L134.209 143.655C134.251 143.677 134.289 143.703 134.325 143.73C134.396 143.786 134.459 143.848 134.508 143.914C134.61 144.042 134.66 144.18 134.689 144.299C134.719 144.417 134.722 144.522 134.724 144.606C134.724 144.689 134.714 144.756 134.709 144.8C134.702 144.844 134.698 144.867 134.698 144.867Z" fill="#CF9166"/>
<path d="M108.064 143.572C108.064 143.572 105.71 140.412 103.438 142.407C101.164 144.401 104.214 150.767 108.515 149.378L108.064 143.572Z" fill="#EDAC7C"/>
<path d="M108.235 145.773L108.467 148.761C104.761 149.345 102.765 144.159 104.479 143.483C105.864 142.937 107.53 144.776 108.235 145.773Z" fill="#F7A588"/>
<path d="M103.862 144.535C103.862 144.535 103.868 144.513 103.881 144.47C103.893 144.427 103.914 144.367 103.941 144.291C103.998 144.144 104.097 143.933 104.283 143.783C104.328 143.746 104.38 143.716 104.437 143.691C104.465 143.68 104.493 143.667 104.522 143.658L104.546 143.651L104.548 143.651C104.53 143.657 104.544 143.651 104.541 143.653H104.544L104.551 143.65L104.565 143.646L104.625 143.632C104.666 143.62 104.699 143.617 104.731 143.613C104.762 143.607 104.796 143.604 104.834 143.603C104.87 143.601 104.905 143.599 104.943 143.601C104.98 143.601 105.017 143.602 105.055 143.608C105.357 143.634 105.677 143.759 105.979 143.931C106.131 144.014 106.278 144.112 106.423 144.213C106.564 144.315 106.704 144.42 106.836 144.526C107.1 144.739 107.34 144.953 107.547 145.137C107.96 145.519 108.235 145.773 108.235 145.773C108.235 145.773 108.2 145.685 108.124 145.537C108.049 145.39 107.932 145.182 107.768 144.949C107.687 144.834 107.595 144.707 107.49 144.582C107.384 144.456 107.269 144.326 107.14 144.197C106.884 143.945 106.582 143.693 106.231 143.495C106.057 143.399 105.869 143.314 105.673 143.255C105.477 143.195 105.272 143.161 105.071 143.164C105.019 143.164 104.97 143.169 104.92 143.173C104.87 143.176 104.822 143.184 104.773 143.195C104.727 143.202 104.679 143.215 104.629 143.231C104.58 143.246 104.534 143.26 104.5 143.278L104.444 143.301L104.409 143.317L104.377 143.333C104.334 143.354 104.295 143.38 104.258 143.406C104.187 143.461 104.123 143.521 104.072 143.585C103.968 143.713 103.915 143.849 103.883 143.966C103.85 144.084 103.845 144.189 103.842 144.273C103.84 144.358 103.847 144.424 103.852 144.468C103.858 144.511 103.862 144.535 103.862 144.535Z" fill="#CF9166"/>
<path d="M121.868 153.379L115.789 153.312C115.789 153.312 115.453 162.828 115.43 162.828C115.43 162.828 115.856 164.731 118.552 164.802C121.249 164.872 121.935 162.897 121.935 162.897C121.913 162.845 121.868 153.379 121.868 153.379Z" fill="#EDAC7C"/>
<path d="M121.935 156.882L115.598 156.67C115.598 156.67 115.562 160.172 115.54 160.172C115.54 160.172 115.881 162.397 118.577 162.468C121.274 162.539 121.908 160.494 121.908 160.494C121.887 160.441 121.935 156.882 121.935 156.882Z" fill="#CF9166"/>
<path d="M121.848 155.129L115.77 155.063C115.77 155.063 115.68 156.278 115.599 157.311C115.586 157.461 117.33 157.744 117.519 157.776C119.004 158.028 120.472 157.853 121.924 157.499C121.888 156.441 121.848 155.129 121.848 155.129Z" fill="#CF9166"/>
<path d="M133.617 141.338C133.535 148.918 126.892 154.992 118.779 154.905C110.667 154.818 104.157 148.601 104.238 141.022C104.32 133.441 110.963 127.366 119.076 127.453C127.187 127.541 133.699 133.757 133.617 141.338Z" fill="#3E150D"/>
<path d="M132.057 141.135C131.955 136.911 130.182 132.904 126.027 131.22C123.915 130.363 121.587 130.116 119.316 130.128C117.072 130.141 114.682 130.26 112.565 131.05C108.773 132.467 107.743 130.155 107.317 134.008C107.275 134.385 106.774 135.999 106.26 140.857C106.168 141.723 106.144 142.583 106.167 143.457C106.219 145.42 106.509 147.392 107.13 149.263C107.882 151.533 109.156 153.646 111.025 155.197C112.087 156.08 113.313 156.76 114.615 157.236C116.765 158.019 118.818 158.293 121.079 157.901C122.612 157.637 124.109 157.152 125.46 156.393C127.702 155.133 129.393 153.156 130.46 150.86C131.356 148.928 131.836 146.821 132.026 144.712C132.131 143.557 132.166 142.382 132.065 141.227C132.062 141.196 132.057 141.166 132.057 141.135Z" fill="#EDAC7C"/>
<path d="M123.083 145.13C123.023 146.33 123.869 147.345 124.97 147.399C126.072 147.454 127.013 146.524 127.074 145.324C127.134 144.125 126.29 143.109 125.187 143.056C124.085 143.001 123.143 143.931 123.083 145.13Z" fill="#CF9166"/>
<path d="M123.108 144.623C123.048 145.823 123.893 146.838 124.994 146.893C126.097 146.947 127.038 146.017 127.098 144.818C127.159 143.619 126.315 142.602 125.212 142.548C124.111 142.495 123.168 143.424 123.108 144.623Z" fill="black"/>
<path d="M123.823 144.068C123.801 144.502 124.142 144.873 124.583 144.894C125.026 144.916 125.402 144.581 125.423 144.146C125.446 143.712 125.104 143.343 124.663 143.322C124.221 143.299 123.844 143.634 123.823 144.068Z" fill="white"/>
<path d="M111.185 144.662C111.125 145.861 111.969 146.877 113.071 146.931C114.174 146.985 115.114 146.055 115.174 144.856C115.235 143.657 114.391 142.641 113.288 142.587C112.187 142.534 111.244 143.462 111.185 144.662Z" fill="#CF9166"/>
<path d="M111.21 144.155C111.15 145.355 111.996 146.369 113.096 146.424C114.199 146.478 115.14 145.55 115.2 144.349C115.261 143.15 114.416 142.133 113.314 142.081C112.213 142.027 111.27 142.956 111.21 144.155Z" fill="black"/>
<path d="M111.924 143.6C111.903 144.034 112.243 144.404 112.685 144.425C113.127 144.447 113.504 144.113 113.526 143.677C113.547 143.243 113.207 142.873 112.763 142.852C112.322 142.83 111.946 143.165 111.924 143.6Z" fill="white"/>
<path d="M118.215 143.339C118.215 143.339 118.508 145.98 117.264 145.76C114.858 145.34 114.851 150.498 118.486 148.577C119.857 147.853 119.405 143.375 119.405 143.375L118.215 143.339Z" fill="#F48470"/>
<path d="M115.665 150.9C115.665 150.9 120.508 151.705 122.809 148.93C122.809 148.93 124.744 154.114 119.544 154.78C116.26 155.198 115.665 150.9 115.665 150.9Z" fill="#B43128"/>
<path d="M117.312 154.169C117.862 154.623 118.589 154.901 119.544 154.78C120.724 154.628 121.534 154.245 122.087 153.744C122.245 153.592 122.386 153.43 122.514 153.262C122.518 153.259 122.52 153.254 122.523 153.251C122.525 153.248 122.525 153.247 122.527 153.245C122.923 152.684 123.093 152.042 123.144 151.427C120.222 150.662 118.127 152.947 117.312 154.169Z" fill="#F05736"/>
<path d="M115.665 150.9C115.665 150.9 115.672 150.937 115.682 151.003C116.154 151.1 117.026 152.125 118.201 152.084C118.944 152.059 119.673 151.854 120.341 151.539C120.756 151.344 121.184 151.156 121.543 150.868C121.818 150.649 122.016 149.998 122.132 149.595C119.677 151.566 115.666 150.9 115.665 150.9Z" fill="white"/>
<path d="M115.989 151.204C116.199 152.174 117.009 154.842 119.511 154.522C120.898 154.346 121.872 153.817 122.407 152.953C123.145 151.759 122.881 150.193 122.69 149.449C120.61 151.512 117.13 151.329 115.989 151.204ZM119.062 155.066C116.009 155.034 115.41 150.979 115.406 150.935C115.394 150.855 115.422 150.772 115.482 150.715C115.543 150.658 115.626 150.632 115.71 150.646C115.756 150.653 120.431 151.392 122.605 148.767C122.665 148.696 122.759 148.66 122.853 148.676C122.947 148.691 123.024 148.755 123.057 148.843C123.095 148.945 123.986 151.39 122.859 153.219C122.237 154.225 121.134 154.838 119.579 155.036C119.398 155.059 119.228 155.068 119.062 155.066Z" fill="#F05B4E"/>
<path d="M113.781 150.617C113.769 151.724 112.847 152.612 111.721 152.599C110.595 152.587 109.69 151.68 109.702 150.573C109.714 149.466 110.637 148.579 111.763 148.59C112.889 148.604 113.793 149.51 113.781 150.617Z" fill="#F49B77"/>
<path d="M128.42 149.486C128.408 150.593 127.486 151.481 126.358 151.469C125.234 151.457 124.33 150.55 124.341 149.442C124.354 148.336 125.276 147.449 126.402 147.461C127.528 147.473 128.432 148.38 128.42 149.486Z" fill="#F49B77"/>
<path d="M109.812 139.184C109.812 139.184 109.857 139.101 109.962 138.972C110.016 138.911 110.08 138.83 110.165 138.752C110.246 138.67 110.344 138.584 110.458 138.495C110.57 138.407 110.698 138.319 110.838 138.233C110.979 138.15 111.13 138.062 111.296 137.992C111.458 137.913 111.634 137.851 111.814 137.792C111.994 137.73 112.184 137.695 112.37 137.647C112.56 137.617 112.751 137.588 112.938 137.57C113.127 137.559 113.314 137.554 113.491 137.555C113.671 137.565 113.843 137.58 114.005 137.596C114.169 137.615 114.32 137.652 114.459 137.68C114.597 137.711 114.723 137.738 114.833 137.78C114.942 137.818 115.037 137.854 115.114 137.884C115.267 137.943 115.352 137.985 115.352 137.985C115.352 137.985 115.255 137.998 115.092 138.01C115.01 138.016 114.912 138.024 114.8 138.027C114.69 138.028 114.563 138.043 114.427 138.054C114.292 138.066 114.146 138.066 113.993 138.083C113.84 138.1 113.681 138.115 113.516 138.127C113.352 138.149 113.184 138.174 113.011 138.193C112.842 138.222 112.671 138.251 112.499 138.281C112.413 138.3 112.328 138.319 112.244 138.337C112.158 138.355 112.073 138.369 111.992 138.394C111.909 138.417 111.826 138.437 111.744 138.457C111.661 138.475 111.586 138.505 111.506 138.526C111.346 138.569 111.197 138.622 111.052 138.669C110.979 138.691 110.912 138.722 110.845 138.744C110.777 138.769 110.71 138.79 110.649 138.818C110.524 138.866 110.409 138.912 110.309 138.956C110.205 138.998 110.118 139.041 110.042 139.073C109.973 139.109 109.911 139.133 109.873 139.154C109.833 139.174 109.812 139.184 109.812 139.184Z" fill="black"/>
<path d="M127.165 142.082C127.165 142.082 127.109 142.005 126.989 141.891C126.926 141.837 126.853 141.764 126.761 141.697C126.668 141.627 126.559 141.555 126.438 141.481C126.314 141.408 126.176 141.336 126.026 141.27C125.874 141.206 125.713 141.137 125.54 141.09C125.369 141.032 125.187 140.993 125.001 140.956C124.815 140.918 124.623 140.908 124.431 140.885C124.238 140.879 124.047 140.875 123.857 140.881C123.669 140.895 123.484 140.914 123.306 140.937C123.13 140.97 122.961 141.007 122.801 141.043C122.643 141.082 122.498 141.139 122.364 141.185C122.23 141.234 122.108 141.277 122.006 141.332C121.902 141.383 121.813 141.431 121.741 141.471C121.595 141.55 121.517 141.601 121.517 141.601C121.517 141.601 121.615 141.603 121.778 141.594C121.859 141.589 121.958 141.584 122.07 141.574C122.18 141.56 122.306 141.558 122.443 141.551C122.578 141.546 122.722 141.528 122.878 141.524C123.031 141.522 123.191 141.517 123.356 141.508C123.522 141.51 123.693 141.512 123.865 141.508C124.037 141.515 124.21 141.523 124.385 141.53C124.472 141.538 124.558 141.545 124.645 141.552C124.731 141.56 124.817 141.562 124.903 141.577C124.987 141.59 125.072 141.598 125.155 141.607C125.24 141.615 125.321 141.635 125.401 141.646C125.565 141.668 125.719 141.702 125.87 141.73C125.945 141.741 126.014 141.764 126.084 141.777C126.155 141.793 126.224 141.806 126.288 141.824C126.417 141.858 126.538 141.888 126.644 141.919C126.752 141.947 126.843 141.978 126.92 142.001C126.996 142.028 127.06 142.043 127.101 142.059C127.142 142.073 127.165 142.082 127.165 142.082Z" fill="black"/>
<path d="M131.883 147.438C131.883 147.438 132.203 146.848 132.812 145.722C135.093 141.504 136.055 136.555 134.825 131.921C134.164 129.43 132.801 128.218 131.692 127.63C130.555 127.029 125.387 123.765 122.285 122.823C116.685 121.122 110.721 122.893 106.53 125.802C102.34 128.711 96.8739 138.243 101.406 138.341C105.939 138.44 112.828 132.063 110.781 133.707C107.85 136.06 110.719 136.309 117.277 136.534C123.835 136.758 127.723 134.476 127.723 134.476C127.723 134.476 127.476 136.483 128.443 139.457C129.408 142.431 132.088 145.818 132.088 145.818" fill="#361710"/>
<path d="M111.35 161.272L112.945 201.803C112.945 201.803 112.898 209.164 107.322 210.928C101.746 212.691 99.1804 212.162 99.1804 212.162C99.1804 212.162 105.241 186.036 104.026 180.186C102.81 174.335 100.948 164.988 100.948 164.988L111.35 161.272Z" fill="#122738"/>
<path d="M125.31 161.163L122.961 201.803C122.961 201.803 123.008 209.164 128.584 210.928C134.16 212.691 136.726 212.162 136.726 212.162C136.726 212.162 130.664 186.036 131.879 180.186C133.096 174.335 134.958 164.988 134.958 164.988L125.31 161.163Z" fill="#122738"/>
<path d="M141.217 172.769C141.217 172.769 152.468 186.09 152.488 190.281C152.508 194.473 146.606 193.15 146.606 193.15L135.943 177.93L141.217 172.769Z" fill="#EDAC7C"/>
<path d="M141.217 172.769L135.943 177.93L140.182 183.98C140.182 183.98 142.696 180.231 147.251 180.514C144.307 176.428 141.217 172.769 141.217 172.769Z" fill="#CF9166"/>
<path d="M100.3 174.035C100.3 174.035 85.2698 182.873 81.1358 182.184C77.0011 181.496 79.3024 175.902 79.3024 175.902L96.1059 167.965L100.3 174.035Z" fill="#EDAC7C"/>
<path d="M87.8442 180.417C93.5442 178.006 100.3 174.036 100.3 174.036L96.1059 167.966L87.84 171.869C87.84 171.869 90.905 178.534 87.8442 180.417" fill="#CF9166"/>
<path d="M149.946 193.229C149.976 193.212 150.007 193.194 150.037 193.175C151.22 192.46 152.091 191.303 152.687 190.053C153.954 187.394 154.624 184.314 155.588 181.524C156.339 179.351 157.02 177.007 157.939 174.821C157.798 174.757 157.666 174.674 157.548 174.564C156.379 173.469 155.804 172.727 154.459 171.857C154.073 175.215 149.361 181.807 147.394 187.046C147.005 188.081 146.667 189.153 146.629 190.258C146.558 192.336 147.688 194.535 149.946 193.229Z" fill="#EEC9B1"/>
<path d="M147.448 194.093C148.034 194.445 149.01 194.703 150.351 193.93L150.455 193.868C151.66 193.139 152.683 191.94 153.417 190.402C154.275 188.602 154.865 186.626 155.435 184.714C155.725 183.74 156.026 182.733 156.352 181.789C156.582 181.126 156.804 180.447 157.029 179.762C157.535 178.221 158.057 176.628 158.685 175.134L158.989 174.408L158.272 174.083C158.202 174.051 158.146 174.016 158.101 173.974C157.792 173.684 157.524 173.419 157.273 173.17C156.563 172.467 155.95 171.858 154.898 171.178L153.804 170.471L153.655 171.765C153.457 173.493 151.905 176.346 150.263 179.367C148.913 181.847 147.52 184.41 146.637 186.762C146.257 187.773 145.863 188.976 145.82 190.231C145.762 191.949 146.401 193.464 147.448 194.093Z" fill="#EDAC7C"/>
<path d="M157.112 172.58C157.114 172.575 158.007 169.879 158.351 169.774C158.697 169.669 159.309 169.914 159.309 169.914L158.276 173.781C158.276 173.781 159.716 170.544 160.278 170.266C160.839 169.987 161.467 170.281 161.467 170.281L159.749 174.734C159.749 174.734 160.765 171.518 161.365 171.012C161.966 170.507 162.678 170.722 162.678 170.722L161.228 175.524L161.098 174.916C161.098 174.916 162.089 173.215 162.695 173.086C163.301 172.955 163.885 173.101 163.885 173.101C163.885 173.101 162.795 174.832 162.324 175.944C161.854 177.056 161.001 177.261 161.001 177.261C159.089 176.676 157.459 175.248 155.886 174.027C154.671 173.083 153.804 170.47 153.804 170.47C153.804 170.47 155.453 168.944 157.112 172.58Z" fill="#EDAC7C"/>
<path d="M79.7105 180.513C79.688 180.486 79.6655 180.46 79.6437 180.432C78.7759 179.355 78.3515 177.972 78.2178 176.593C77.9342 173.662 78.355 170.537 78.4008 167.585C78.4367 165.287 78.5964 162.851 78.4789 160.482C78.6323 160.47 78.7857 160.438 78.9335 160.374C80.4058 159.744 81.1997 159.243 82.7614 158.885C81.9781 162.172 84.1577 169.976 84.2196 175.572C84.2316 176.678 84.1837 177.801 83.8424 178.853C83.1999 180.831 81.3876 182.513 79.7105 180.513Z" fill="#EEC9B1"/>
<path d="M81.7639 182.178C81.0924 182.309 80.0882 182.219 79.0909 181.034L79.0135 180.939C78.1302 179.844 77.5771 178.368 77.4124 176.671C77.2203 174.687 77.3406 172.628 77.4567 170.637C77.5158 169.623 77.5771 168.573 77.5926 167.573C77.6031 166.872 77.6256 166.158 77.6481 165.438C77.6988 163.816 77.7509 162.141 77.6714 160.522L77.632 159.735L78.4174 159.675C78.4941 159.67 78.5581 159.656 78.6151 159.631C79.0057 159.465 79.3464 159.307 79.668 159.158C80.5752 158.739 81.3585 158.377 82.5802 158.096L83.8499 157.804L83.5486 159.072C83.1447 160.763 83.6303 163.975 84.1433 167.375C84.5649 170.166 85.0005 173.051 85.0287 175.565C85.0407 176.644 85.0005 177.908 84.6121 179.102C84.0807 180.737 82.9631 181.944 81.7639 182.178Z" fill="#EDAC7C"/>
<path d="M80.0198 158.659C80.0198 158.654 80.1015 155.814 79.8136 155.598C79.5244 155.382 78.8649 155.402 78.8649 155.402L78.5166 159.391C78.5166 159.391 78.2681 155.856 77.8346 155.403C77.4018 154.95 76.7114 155.012 76.7114 155.012L76.8064 159.783C76.8064 159.783 76.9493 156.414 76.5573 155.734C76.1652 155.054 75.4235 155.012 75.4235 155.012L75.1476 160.021L75.4769 159.495C75.4769 159.495 75.1258 157.559 74.6 157.229C74.0743 156.899 73.4768 156.837 73.4768 156.837C73.4768 156.837 73.9103 158.837 73.973 160.042C74.0356 161.248 74.7668 161.731 74.7668 161.731C76.7649 161.834 78.7847 161.048 80.6793 160.436C82.1439 159.964 83.8498 157.804 83.8498 157.804C83.8498 157.804 82.8209 155.807 80.0198 158.659Z" fill="#EDAC7C"/>
<path d="M134.958 164.987C134.958 164.987 144.119 172.31 146.303 176.597L136.673 183.549L129.384 172.77L134.958 164.987Z" fill="#122738"/>
<path d="M100.949 164.987C100.949 164.987 93.0706 168.848 88.3638 171.346L92.609 181.738L106.062 176.778L100.949 164.987Z" fill="#122738"/>
<path d="M119.311 308.025C118.008 308.297 115.998 307.537 114.489 309.872C113.035 312.122 109.617 312.087 109.37 312.082C111.654 312.375 114.354 312.231 115.039 311.236C116.08 309.721 118.591 309.416 118.591 309.416C120.043 309.416 121.207 308.218 121.162 306.767C121.159 306.683 121.157 306.591 121.155 306.503C120.686 307.147 120.015 307.879 119.311 308.025Z" fill="#1C0906"/>
<path d="M257.258 127.299L258.341 127.683C259.493 128.091 260.095 129.355 259.688 130.506L259.294 131.618C258.886 132.769 257.622 133.372 256.471 132.964L255.387 132.58C254.236 132.172 253.633 130.908 254.041 129.757L254.435 128.645C254.842 127.494 256.106 126.891 257.258 127.299ZM269.775 97.7008C272.591 98.698 274.364 100.463 275.094 102.995C275.678 104.995 275.59 107.07 274.829 109.22C273.556 112.814 270.717 115.656 266.312 117.744C264.777 118.473 263.706 119.574 263.1 121.049C262.886 121.536 262.67 122.085 262.454 122.696C262.046 123.848 260.782 124.45 259.631 124.043L258.548 123.658C257.396 123.251 256.793 121.987 257.201 120.835C258.362 117.556 260.032 115.406 262.209 114.382C264.56 113.276 266.381 111.93 267.673 110.344C268.418 109.419 268.998 108.373 269.411 107.206C269.838 106.002 269.904 104.962 269.61 104.086C269.298 103.079 268.552 102.449 267.369 102.197C266.267 101.953 265.248 102.416 264.312 103.586C264.266 103.642 264.219 103.7 264.174 103.76C263.504 104.627 262.296 104.869 261.342 104.329L260.406 103.8C259.248 103.146 258.923 101.621 259.717 100.554C260.506 99.494 261.458 98.641 262.57 97.9949C263.777 97.2961 265.219 96.9935 266.896 97.0871C267.778 97.1293 268.738 97.3334 269.775 97.7008Z" fill="#1983FF"/>
<path d="M181.551 130.569L183.135 130.879C184.819 131.208 185.916 132.841 185.587 134.523L185.269 136.148C184.939 137.831 183.308 138.928 181.625 138.599L180.04 138.289C178.357 137.96 177.26 136.328 177.59 134.646L177.908 133.02C178.237 131.337 179.868 130.239 181.551 130.569ZM192.843 86.8795C196.96 87.6853 199.787 89.7713 201.322 93.1368C202.545 95.7957 202.85 98.6959 202.235 101.838C201.206 107.093 197.848 111.624 192.161 115.433C190.178 116.761 188.918 118.511 188.38 120.683C188.182 121.405 187.996 122.212 187.821 123.106C187.492 124.789 185.86 125.886 184.177 125.556L182.593 125.247C180.909 124.917 179.812 123.286 180.142 121.603C181.08 116.808 182.955 113.477 185.768 111.609C188.806 109.588 191.06 107.343 192.528 104.874C193.372 103.436 193.961 101.864 194.295 100.157C194.639 98.3968 194.517 96.9386 193.927 95.7823C193.288 94.4486 192.122 93.7272 190.427 93.621C188.846 93.5084 187.526 94.3606 186.467 96.1785C186.414 96.2665 186.362 96.3566 186.31 96.4488C185.559 97.7923 183.93 98.3757 182.494 97.8232L181.085 97.2813C179.342 96.6106 178.576 94.5591 179.46 92.9137C180.338 91.2788 181.484 89.898 182.897 88.7719C184.428 87.553 186.369 86.8358 188.718 86.6205C189.951 86.4966 191.326 86.5825 192.843 86.8795Z" fill="#1983FF"/>
<path d="M156.001 158.709L157.115 158.423C158.298 158.119 159.503 158.832 159.806 160.014L160.1 161.157C160.404 162.339 159.691 163.545 158.508 163.848L157.394 164.135C156.212 164.438 155.006 163.726 154.703 162.542L154.409 161.4C154.105 160.217 154.818 159.013 156.001 158.709ZM149.879 127.16C152.773 126.417 155.228 126.893 157.247 128.586C158.847 129.921 159.931 131.692 160.498 133.901C161.447 137.594 160.676 141.537 158.186 145.727C157.318 147.188 157.043 148.699 157.364 150.261C157.457 150.785 157.585 151.361 157.746 151.99C158.05 153.173 157.337 154.378 156.154 154.681L155.04 154.967C153.857 155.271 152.652 154.558 152.348 153.375C151.484 150.006 151.669 147.289 152.904 145.227C154.24 142.997 155 140.864 155.188 138.826C155.29 137.643 155.187 136.452 154.879 135.252C154.561 134.015 154.036 133.115 153.303 132.552C152.483 131.89 151.512 131.784 150.39 132.234C149.339 132.647 148.751 133.599 148.628 135.092C148.621 135.165 148.614 135.238 148.609 135.314C148.538 136.408 147.67 137.282 146.577 137.366L145.506 137.449C144.179 137.552 143.059 136.468 143.123 135.139C143.187 133.819 143.5 132.581 144.064 131.424C144.675 130.171 145.703 129.115 147.147 128.257C147.902 127.8 148.812 127.434 149.879 127.16Z" fill="#1983FF"/>
<path d="M326.533 158.859L327.647 158.573C328.829 158.269 330.035 158.982 330.338 160.164L330.631 161.307C330.935 162.49 330.223 163.695 329.04 163.999L327.925 164.285C326.743 164.589 325.537 163.876 325.234 162.693L324.941 161.551C324.637 160.369 325.35 159.163 326.533 158.859ZM320.41 127.311C323.304 126.568 325.76 127.044 327.778 128.737C329.379 130.072 330.463 131.843 331.03 134.051C331.978 137.746 331.208 141.688 328.718 145.878C327.849 147.34 327.575 148.85 327.895 150.412C327.989 150.936 328.116 151.512 328.277 152.14C328.581 153.323 327.868 154.529 326.686 154.832L325.572 155.118C324.389 155.422 323.184 154.709 322.88 153.526C322.015 150.157 322.2 147.44 323.436 145.377C324.771 143.148 325.532 141.015 325.719 138.976C325.821 137.793 325.718 136.603 325.411 135.403C325.093 134.165 324.568 133.266 323.834 132.703C323.014 132.041 322.044 131.935 320.922 132.386C319.871 132.797 319.283 133.75 319.159 135.243C319.152 135.315 319.146 135.389 319.142 135.465C319.07 136.558 318.201 137.433 317.108 137.518L316.037 137.601C314.711 137.703 313.59 136.618 313.654 135.29C313.718 133.97 314.031 132.731 314.595 131.574C315.207 130.321 316.234 129.266 317.678 128.409C318.434 127.951 319.344 127.585 320.41 127.311Z" fill="#1983FF"/>
<path d="M200.395 200.657L205.089 180.831L196.553 180.509L192.067 198.81C191.751 200.101 191.825 201.457 192.279 202.707L200.437 225.158L210.209 224.215L200.395 200.657Z" fill="#A7A6BB"/>
<path d="M196.535 198.01C197.406 196.26 198.251 194.695 199.07 193.316C200.204 191.292 201.637 189.576 203.357 188.151L205.09 180.831L196.553 180.509L192.067 198.81C191.846 199.712 191.827 200.644 191.984 201.551C193.89 201.135 195.598 199.894 196.535 198.01Z" fill="#727293"/>
<path d="M208.713 266.06L208.506 267.023L207.414 272.087L202.583 294.5L202.057 296.935L201.939 297.484L200.967 308.128L199.823 308.475C196.918 309.357 193.95 309.166 191.36 308.104C190.3 307.669 189.219 306.61 188.465 305.768C187.611 304.814 186.921 303.719 186.386 302.557C184.849 299.216 184.494 295.411 184.414 291.778C184.386 290.55 184.393 289.322 184.393 288.093V276.05V265.52V261.694C185.281 261.694 186.277 261.583 186.989 261.535C187.63 261.493 188.782 261.278 189.442 261.278C192.031 260.39 194.7 260.633 197.199 260.329C198.385 260.185 199.534 260.116 200.615 260.071C202.122 260.011 203.499 260.101 204.674 260.392C207.14 261.006 208.713 262.625 208.713 266.06Z" fill="#1C1B2D"/>
<path d="M228.093 299.476L202.392 307.697L200.968 308.129L199.823 308.474C196.918 309.357 193.95 309.167 191.36 308.104C190.685 307.725 190.048 307.282 189.457 306.786C189.453 306.783 189.451 306.779 189.447 306.775C187.456 304.937 186.064 302.453 185.584 299.653L200.457 295.143L202.583 294.5L224.679 288.217L228.093 299.476Z" fill="#1C1B2D"/>
<path d="M241.705 301.33C241.374 299.896 240.797 298.121 240.669 297.561C240.178 295.412 239.452 293.314 238.835 291.2C238.609 290.426 238.333 289.891 238.238 289.722C238.19 289.644 238.197 289.648 238.238 289.722C238.307 289.835 238.487 290.113 238.84 290.596C238.194 289.713 237.676 288.882 237.249 287.881C236.768 286.75 236.398 285.619 236.12 284.492L220.23 289.237L223.828 301.286L231.283 299.06C231.743 298.923 232.227 299.184 232.364 299.644L233.131 302.214C233.369 303.01 233.712 303.745 234.125 304.424C234.557 304.273 234.999 304.147 235.45 304.05C237.42 303.625 239.298 302.928 241.183 302.253C241.344 301.939 241.516 301.63 241.705 301.33Z" fill="#361710"/>
<path d="M227.063 291.094C228.459 290.677 229.929 291.472 230.346 292.868C230.763 294.264 229.969 295.734 228.573 296.152C227.177 296.568 225.706 295.775 225.289 294.378C224.872 292.982 225.666 291.512 227.063 291.094Z" fill="white"/>
<path d="M233.2 302.425C234.777 307.29 239.956 310.032 244.881 308.561C245.341 308.423 245.603 307.939 245.466 307.48L243.076 299.476L233.2 302.425Z" fill="white"/>
<path d="M241.663 308.942C242.721 309 243.808 308.881 244.882 308.56C245.341 308.423 245.603 307.939 245.466 307.479L238.646 284.645C238.51 284.185 238.026 283.923 237.565 284.061L234.506 284.974L241.663 308.942Z" fill="white"/>
<path d="M227.829 227.445L226.444 230.282L219.186 245.147L207.24 269.616L184.708 260.491L191.607 244.804L196.555 233.558L204.132 216.33L227.829 227.445Z" fill="#A7A6BB"/>
<path d="M223.785 232.318C223.533 232.318 223.057 231.973 222.488 231.491C221.248 238.008 214.867 243.115 208.241 243.115C202.6 243.115 197.985 239.901 195.579 235.308L190.604 247.085L195.875 255.11C196.992 256.767 199.178 257.323 200.953 256.399L218.183 247.429L225.441 232.564C224.908 232.402 224.348 232.318 223.785 232.318Z" fill="#727293"/>
<path d="M216.417 235.896C215.112 235.896 213.87 235.707 212.689 235.386L198.228 265.006L185.067 259.676L184.708 260.491L207.24 269.617L225.218 232.793C222.697 234.724 219.586 235.896 216.417 235.896Z" fill="#727293"/>
<path d="M232.188 207.652C232.188 207.652 235.685 205.615 237.027 208.415C238.37 211.214 232.925 215.996 229.424 212.952L232.188 207.652Z" fill="#EDAC7C"/>
<path d="M231.141 209.661L229.717 212.389C232.982 214.433 236.957 210.34 235.61 209.011C234.522 207.936 232.208 209.003 231.141 209.661Z" fill="#F7A588"/>
<path d="M235.77 210.253C235.77 210.253 235.772 210.228 235.778 210.183C235.783 210.138 235.787 210.072 235.793 209.991C235.797 209.829 235.788 209.589 235.674 209.374C235.646 209.32 235.608 209.27 235.567 209.225C235.544 209.202 235.523 209.18 235.497 209.157L235.479 209.142L235.479 209.141C235.491 209.154 235.481 209.144 235.484 209.147L235.481 209.144L235.474 209.14L235.462 209.13L235.412 209.094C235.377 209.066 235.348 209.049 235.321 209.033C235.294 209.015 235.263 208.998 235.227 208.981C235.194 208.965 235.16 208.948 235.125 208.936C235.089 208.921 235.054 208.905 235.016 208.895C234.719 208.8 234.368 208.79 234.014 208.83C233.835 208.846 233.658 208.881 233.481 208.918C233.306 208.957 233.131 208.999 232.965 209.046C232.629 209.141 232.317 209.247 232.046 209.337C231.503 209.532 231.141 209.66 231.141 209.66C231.141 209.66 231.209 209.591 231.34 209.482C231.472 209.374 231.665 209.225 231.913 209.071C232.037 208.995 232.174 208.912 232.324 208.836C232.473 208.759 232.636 208.684 232.808 208.615C233.154 208.479 233.541 208.362 233.951 208.318C234.156 208.297 234.365 208.291 234.574 208.314C234.783 208.337 234.991 208.389 235.18 208.472C235.228 208.492 235.273 208.515 235.319 208.541C235.365 208.563 235.406 208.592 235.448 208.62C235.489 208.647 235.529 208.678 235.569 208.712C235.61 208.746 235.649 208.779 235.673 208.807L235.716 208.855L235.743 208.883L235.767 208.912C235.799 208.948 235.825 208.987 235.849 209.027C235.896 209.108 235.931 209.19 235.953 209.271C236.001 209.433 235.996 209.584 235.978 209.708C235.961 209.832 235.925 209.934 235.894 210.014C235.862 210.093 235.828 210.153 235.806 210.193C235.783 210.233 235.77 210.253 235.77 210.253Z" fill="#CF9166"/>
<path d="M210.887 198.836C210.887 198.836 209.853 194.924 206.925 195.956C203.996 196.987 204.468 204.218 209.098 204.54L210.887 198.836Z" fill="#EDAC7C"/>
<path d="M210.209 200.997L209.287 203.933C205.534 203.073 205.614 197.369 207.506 197.379C209.034 197.388 209.918 199.778 210.209 200.997Z" fill="#F7A588"/>
<path d="M206.515 198.144C206.515 198.144 206.53 198.126 206.559 198.09C206.587 198.054 206.629 198.005 206.684 197.944C206.794 197.825 206.97 197.661 207.204 197.59C207.261 197.572 207.323 197.564 207.387 197.561C207.418 197.562 207.449 197.559 207.48 197.563L207.506 197.565H207.507C207.488 197.565 207.503 197.565 207.5 197.565L207.503 197.565L207.511 197.566L207.526 197.568L207.588 197.577C207.632 197.581 207.665 197.591 207.696 197.599C207.728 197.605 207.762 197.615 207.798 197.629C207.833 197.64 207.868 197.653 207.902 197.669C207.938 197.683 207.973 197.698 208.007 197.718C208.285 197.859 208.541 198.101 208.764 198.379C208.877 198.517 208.979 198.667 209.078 198.818C209.175 198.969 209.268 199.123 209.353 199.274C209.523 199.579 209.67 199.874 209.797 200.128C210.044 200.651 210.209 200.998 210.209 200.998C210.209 200.998 210.209 200.899 210.194 200.73C210.178 200.562 210.146 200.318 210.079 200.034C210.045 199.892 210.007 199.737 209.954 199.577C209.902 199.417 209.842 199.249 209.768 199.078C209.62 198.738 209.429 198.383 209.171 198.061C209.041 197.902 208.895 197.749 208.731 197.618C208.568 197.486 208.385 197.376 208.191 197.302C208.143 197.281 208.094 197.267 208.045 197.253C207.996 197.236 207.948 197.225 207.896 197.218C207.85 197.207 207.799 197.201 207.746 197.196C207.693 197.192 207.643 197.188 207.604 197.192L207.542 197.192L207.503 197.194L207.466 197.197C207.418 197.201 207.37 197.211 207.324 197.221C207.235 197.246 207.152 197.279 207.078 197.32C206.931 197.402 206.829 197.512 206.754 197.612C206.676 197.712 206.631 197.809 206.597 197.888C206.562 197.968 206.545 198.034 206.532 198.078C206.521 198.121 206.515 198.144 206.515 198.144Z" fill="#CF9166"/>
<path d="M220.29 213.458L214.524 211.07C214.524 211.07 210.564 220.008 210.543 219.999C210.543 219.999 210.221 221.976 212.763 223.074C215.306 224.173 216.714 222.553 216.714 222.553C216.714 222.495 220.29 213.458 220.29 213.458Z" fill="#EDAC7C"/>
<path d="M218.437 218.256L212.28 216.117C212.28 216.117 210.905 219.264 210.884 219.255C210.884 219.255 210.646 220.834 213.188 221.934C215.73 223.032 217.056 221.672 217.056 221.672C217.056 221.614 218.437 218.256 218.437 218.256Z" fill="#CF9166"/>
<path d="M219.602 215.118L213.836 212.73C213.836 212.73 213.286 213.853 212.813 214.807C212.744 214.945 214.297 215.881 214.465 215.984C215.784 216.793 217.25 217.186 218.768 217.406C219.138 216.382 219.602 215.118 219.602 215.118Z" fill="#CF9166"/>
<path d="M234.703 198.606C229.644 198.606 225.405 196.023 222.849 192.177H208.911C208.654 193.016 208.421 193.929 208.217 194.942C206.685 202.573 208.685 212.502 216.381 215.687C224.078 218.873 233.113 213.668 236.088 206.478C237.173 203.856 237.345 201.075 236.762 198.442C236.082 198.549 235.394 198.606 234.703 198.606Z" fill="#3E150D"/>
<path d="M234.68 205.688C236.199 201.625 236.041 197.128 232.727 193.935C231.041 192.311 228.918 191.185 226.749 190.329C224.607 189.482 222.284 188.682 219.964 188.625C215.809 188.524 215.562 190.594 213.684 194.102C213.499 194.445 210.368 195.204 210.207 195.558C209.836 196.372 209.436 197.158 209.124 197.999C208.422 199.89 207.946 201.881 207.821 203.901C207.67 206.35 208.076 208.85 209.263 211.044C209.937 212.292 210.846 213.408 211.905 214.359C213.654 215.927 215.505 216.973 217.809 217.465C219.371 217.799 220.983 217.91 222.56 217.702C225.179 217.36 227.545 216.122 229.44 214.343C231.033 212.846 232.295 211.021 233.283 209.084C233.824 208.023 234.307 206.918 234.653 205.779C234.662 205.748 234.669 205.718 234.68 205.688Z" fill="#EDAC7C"/>
<path d="M224.391 204.773C223.876 205.893 224.292 207.184 225.321 207.657C226.35 208.129 227.602 207.604 228.119 206.484C228.635 205.364 228.218 204.074 227.189 203.601C226.16 203.128 224.907 203.653 224.391 204.773Z" fill="#CF9166"/>
<path d="M224.549 203.965C224.032 205.085 224.449 206.376 225.478 206.849C226.508 207.322 227.76 206.796 228.276 205.677C228.793 204.558 228.377 203.266 227.347 202.793C226.318 202.321 225.064 202.845 224.549 203.965Z" fill="black"/>
<path d="M225.442 203.71C225.254 204.115 225.439 204.598 225.851 204.787C226.264 204.977 226.75 204.803 226.937 204.396C227.124 203.991 226.94 203.509 226.527 203.319C226.115 203.129 225.629 203.304 225.442 203.71Z" fill="white"/>
<path d="M212.784 200.483C212.268 201.604 212.684 202.894 213.713 203.367C214.743 203.84 215.996 203.313 216.511 202.195C217.027 201.075 216.611 199.784 215.582 199.311C214.553 198.839 213.3 199.363 212.784 200.483Z" fill="#CF9166"/>
<path d="M213.002 200.008C212.486 201.129 212.903 202.419 213.932 202.892C214.961 203.365 216.213 202.84 216.729 201.72C217.246 200.601 216.829 199.309 215.8 198.836C214.771 198.364 213.517 198.889 213.002 200.008Z" fill="black"/>
<path d="M213.894 199.754C213.708 200.159 213.89 200.642 214.304 200.831C214.716 201.022 215.203 200.847 215.391 200.44C215.576 200.034 215.394 199.552 214.98 199.362C214.568 199.174 214.082 199.348 213.894 199.754Z" fill="white"/>
<path d="M220.133 200.764C220.133 200.764 219.46 205.154 218.227 204.757C215.837 203.993 215.111 209.239 219.076 207.792C220.573 207.247 221.339 200.966 221.339 200.966L220.133 200.764Z" fill="#F48470"/>
<path d="M212.473 198.118C212.473 198.118 212.547 198.056 212.697 197.974C212.772 197.935 212.865 197.883 212.975 197.841C213.084 197.793 213.21 197.75 213.352 197.709C213.492 197.667 213.648 197.632 213.813 197.604C213.98 197.579 214.158 197.553 214.343 197.549C214.527 197.536 214.718 197.545 214.913 197.557C215.108 197.566 215.303 197.606 215.499 197.632C215.69 197.676 215.884 197.722 216.07 197.776C216.253 197.838 216.432 197.904 216.602 197.972C216.769 198.05 216.928 198.131 217.076 198.209C217.225 198.288 217.354 198.382 217.476 198.461C217.595 198.544 217.706 198.618 217.794 198.701C217.883 198.777 217.959 198.849 218.022 198.906C218.145 199.021 218.211 199.094 218.211 199.094C218.211 199.094 218.113 199.07 217.953 199.018C217.873 198.993 217.776 198.962 217.667 198.924C217.562 198.882 217.437 198.848 217.303 198.805C217.169 198.766 217.031 198.71 216.878 198.668C216.726 198.625 216.568 198.579 216.406 198.527C216.241 198.485 216.072 198.446 215.901 198.397C215.728 198.36 215.554 198.322 215.378 198.285C215.289 198.27 215.201 198.255 215.114 198.24C215.025 198.226 214.939 198.206 214.851 198.198C214.764 198.189 214.678 198.176 214.593 198.164C214.507 198.15 214.423 198.149 214.338 198.138C214.17 198.119 214.008 198.112 213.851 198.102C213.773 198.094 213.699 198.098 213.626 198.094C213.551 198.092 213.48 198.087 213.411 198.089C213.274 198.088 213.146 198.087 213.034 198.09C212.918 198.091 212.82 198.098 212.735 198.1C212.655 198.107 212.587 198.107 212.543 198.113C212.497 198.116 212.473 198.118 212.473 198.118Z" fill="black"/>
<path d="M230.261 201.709C230.261 201.709 230.218 201.621 230.116 201.484C230.063 201.419 230.001 201.333 229.92 201.248C229.839 201.161 229.74 201.069 229.63 200.972C229.52 200.877 229.393 200.781 229.252 200.687C229.109 200.595 228.959 200.498 228.792 200.419C228.63 200.331 228.452 200.26 228.27 200.191C228.089 200.117 227.896 200.075 227.706 200.018C227.513 199.977 227.319 199.939 227.126 199.913C226.934 199.893 226.742 199.88 226.559 199.872C226.375 199.875 226.198 199.882 226.03 199.892C225.863 199.903 225.707 199.935 225.563 199.957C225.419 199.983 225.288 200.006 225.175 200.043C225.061 200.077 224.962 200.11 224.883 200.137C224.721 200.191 224.632 200.229 224.632 200.229C224.632 200.229 224.731 200.249 224.898 200.267C224.981 200.278 225.082 200.29 225.197 200.299C225.311 200.305 225.438 200.324 225.578 200.342C225.716 200.361 225.865 200.367 226.022 200.391C226.178 200.415 226.34 200.439 226.509 200.459C226.677 200.489 226.849 200.523 227.024 200.548C227.197 200.585 227.371 200.624 227.547 200.662C227.633 200.685 227.719 200.707 227.806 200.73C227.891 200.753 227.978 200.77 228.062 200.8C228.145 200.828 228.229 200.852 228.312 200.875C228.396 200.898 228.474 200.932 228.554 200.958C228.715 201.008 228.865 201.07 229.013 201.125C229.086 201.149 229.153 201.184 229.222 201.211C229.291 201.239 229.358 201.265 229.419 201.294C229.544 201.35 229.661 201.401 229.763 201.452C229.867 201.5 229.954 201.547 230.028 201.583C230.1 201.624 230.162 201.652 230.2 201.674C230.24 201.696 230.261 201.709 230.261 201.709Z" fill="black"/>
<path d="M234.834 205.902C234.834 205.902 235.674 204.437 236.489 202.427C235.632 204.46 234.834 205.902 234.834 205.902Z" fill="#CF9166"/>
<path d="M235.958 191.533C235.129 191.616 234.268 191.597 233.44 191.614C231.451 191.658 229.46 191.6 227.471 191.636C226.287 191.658 225.105 191.71 223.925 191.802C223.824 191.81 221.085 192.09 221.171 192.055C219.13 192.334 217.096 192.689 215.062 193.001C214.274 193.122 213.499 193.188 212.733 193.223C215.034 193.71 218.015 193.569 220.094 193.366C219.983 193.401 219.883 193.427 219.762 193.469C217.614 194.199 219.389 196.589 223.158 198.195C228.374 200.419 233.1 199.538 233.1 199.538C233.1 199.538 232.257 201.068 232.074 203.763C231.95 205.608 232.406 207.868 232.706 209.11C232.846 209.681 232.95 210.038 232.95 210.038L232.264 211.271C232.264 211.271 233.781 208.708 236.485 205.372C242.121 198.421 241.528 194.387 240.44 192.425C238.912 192.346 237.394 192.057 235.958 191.533Z" fill="#361710"/>
<path d="M235.591 200.377C235.591 200.377 224.376 200.86 205.656 193.416C196.698 189.854 211.352 189.601 211.352 189.601L228.685 189.204L235.591 200.377Z" fill="#2D2C44"/>
<path d="M237.882 203.646C237.882 203.646 237.226 202.264 235.591 200.377C233.71 198.206 230.533 195.366 225.574 193.205C216.311 189.168 211.351 189.602 211.351 189.602C211.351 189.602 212.106 184.162 219.276 181.454C222.061 180.402 224.931 180.12 227.673 180.567C232.277 181.316 236.526 184.114 239.438 188.765C244.062 196.149 237.882 203.646 237.882 203.646Z" fill="#2D2C44"/>
<path d="M235.591 200.377C233.711 198.205 230.533 195.366 225.574 193.205C216.311 189.167 211.352 189.601 211.352 189.601C211.352 189.601 212.105 184.162 219.276 181.454C222.061 180.401 224.931 180.12 227.674 180.567C230.046 181.596 232.289 183.2 234.258 185.371C239.53 191.184 236.463 198.582 235.591 200.377Z" fill="#A7A6BB"/>
<path d="M233.951 208.318C233.951 208.318 226.268 211.346 223.125 213.66C222.298 214.269 221.856 216.331 219.159 216.331C215.819 216.331 216.344 214.736 214.156 213.225C212.931 212.379 210.333 211.522 209.597 210.46C207.977 208.126 207.989 200.62 207.989 200.62C207.989 200.62 205.762 206.441 207.458 211.964C208.188 214.337 209.113 220.508 217.352 220.813C225.145 221.101 226.361 218.703 227.881 217.136C229.401 215.571 233.951 208.318 233.951 208.318Z" fill="#361710"/>
<path d="M181.151 202.991L184.254 204.535C187.55 206.173 188.893 210.174 187.254 213.47L185.671 216.652C184.032 219.948 180.032 221.292 176.736 219.653L173.633 218.109C170.337 216.47 168.995 212.47 170.633 209.174L172.216 205.992C173.855 202.696 177.855 201.353 181.151 202.991Z" fill="#1983FF"/>
<path d="M188.785 223.501L187.708 221.13C187.439 220.336 187.34 219.495 187.414 218.66L187.894 213.327C187.957 212.631 187.741 211.937 187.293 211.4L182.998 206.239C182.724 205.91 182.207 205.95 181.987 206.317C181.857 206.536 181.872 206.811 182.026 207.014L184.017 209.624L182.171 208.157C181.814 207.874 181.282 208.024 181.127 208.453C181.034 208.709 181.106 208.996 181.308 209.177L184.19 211.78L181.469 210.013C181.094 209.768 180.589 209.938 180.436 210.359C180.321 210.675 180.449 211.027 180.74 211.198L183.24 212.655L180.574 211.764C180.253 211.657 179.904 211.826 179.788 212.144C179.682 212.437 179.807 212.764 180.082 212.91L181.615 213.727C182.633 214.271 183.182 215.412 182.969 216.546L182.47 219.208C182.187 220.716 182.491 222.276 183.318 223.569L184.67 225.68L188.785 223.501Z" fill="#EDAC7C"/>
<path d="M222.537 227.551L204.099 237.424C202.876 238.08 201.353 237.684 200.603 236.516L189.824 219.9L181.801 224.271L197.326 249.663C198.445 251.321 200.63 251.876 202.404 250.953L227.888 237.684C230.412 236.37 231.589 233.402 230.652 230.715C229.492 227.392 225.639 225.89 222.537 227.551Z" fill="#A7A6BB"/>
<path d="M211.654 260.414C211.654 270.458 203.512 278.603 193.464 278.603L175.876 277.033L163.312 275.91V272.978C163.312 266.038 168.937 260.414 175.876 260.414H211.654Z" fill="#2D2C44"/>
<path d="M175.515 260.414V309.22L164.493 306.94L163.087 272.979C163.087 266.039 168.413 260.414 175.515 260.414Z" fill="#2D2C44"/>
<path d="M156.691 300.464C151.578 300.582 147.469 304.76 147.469 309.901C147.469 310.381 147.858 310.771 148.338 310.771H156.691V300.464Z" fill="white"/>
<path d="M163.391 291.809V299.59C163.391 300.069 163.002 300.458 162.523 300.458H156.912C156.624 300.458 156.339 300.471 156.056 300.497V308.07H175.966V291.809H163.391Z" fill="#361710"/>
<path d="M172.232 297.825C172.232 299.282 171.05 300.464 169.593 300.464C168.136 300.464 166.954 299.282 166.954 297.825C166.954 296.368 168.136 295.186 169.593 295.186C171.05 295.186 172.232 296.368 172.232 297.825Z" fill="white"/>
<path d="M148.024 306.708C147.666 307.705 147.469 308.78 147.469 309.901C147.469 310.381 147.858 310.769 148.338 310.769H175.097C175.577 310.769 175.967 310.381 175.967 309.901V306.708H148.024Z" fill="white"/>
<path d="M229.373 118.994C237.435 123.003 242.098 128.929 243.361 136.768C244.38 142.966 243.361 149.141 240.301 155.294C235.183 165.584 225.656 173.054 211.719 177.701C206.86 179.321 203.256 182.227 200.907 186.417C200.088 187.796 199.243 189.36 198.373 191.112C196.734 194.407 192.733 195.751 189.438 194.111L186.334 192.568C183.039 190.93 181.695 186.929 183.334 183.634C188.003 174.244 193.779 168.417 200.664 166.15C208.102 163.695 214.042 160.331 218.485 156.056C221.049 153.56 223.163 150.642 224.824 147.299C226.539 143.852 227.114 140.764 226.553 138.036C225.988 134.912 223.984 132.757 220.538 131.571C217.33 130.44 214.112 131.452 210.887 134.612C210.727 134.764 210.567 134.921 210.409 135.082C208.091 137.436 204.387 137.718 201.728 135.756L199.122 133.834C195.896 131.454 195.477 126.772 198.243 123.87C200.99 120.985 204.146 118.78 207.711 117.253C211.574 115.602 215.998 115.221 220.982 116.112C223.604 116.556 226.402 117.516 229.373 118.994Z" fill="#1983FF"/>
<path d="M216.46 213.969C216.677 213.969 216.864 213.821 216.919 213.61C217.136 212.771 217.893 212.15 218.8 212.15C219.708 212.15 220.464 212.771 220.68 213.61C220.734 213.821 220.922 213.969 221.14 213.969C221.445 213.969 221.685 213.683 221.611 213.387C221.293 212.127 220.159 211.192 218.8 211.192C217.44 211.192 216.306 212.127 215.989 213.387C215.914 213.683 216.154 213.969 216.46 213.969Z" fill="#F05B4E"/>
<path d="M224.904 213.128C224.46 211.023 222.97 209.283 220.971 208.522C220.596 208.379 220.169 208.447 219.871 208.716C219.541 209.013 219.18 209.332 218.8 209.332C218.4 209.332 218.022 208.997 217.678 208.685C217.384 208.42 216.968 208.346 216.595 208.481C214.794 209.127 213.361 210.572 212.74 212.413C212.548 212.983 212.827 213.644 213.404 213.817C213.968 213.986 214.526 213.669 214.695 213.14C215.272 211.342 216.995 210.085 218.969 210.199C220.943 210.313 222.509 211.76 222.875 213.612C222.967 214.077 223.357 214.421 223.83 214.449H223.83C224.524 214.449 225.046 213.808 224.904 213.128Z" fill="#361710"/>
<path d="M184.708 260.492C184.708 260.492 197.891 260.844 203.632 265.715C209.372 270.585 210.677 270.672 210.677 270.672C210.677 270.672 211.51 260.871 214.616 254.507C217.723 248.144 213.808 249.885 213.025 250.842C212.242 251.798 202.414 260.054 202.414 260.054L200.47 260.415L184.708 260.492Z" fill="#727293"/>
<path d="M262.881 164.083C262.881 164.083 262.013 167.414 263.442 168.174C264.873 168.935 268.529 169.333 268.566 168.174C268.602 167.015 269.616 165.893 267.806 165.096C265.995 164.3 263.859 164.083 263.859 164.083H262.881Z" fill="#C9BDBD"/>
<path d="M297.88 125.029C297.842 125.036 297.805 125.044 297.768 125.053C297.473 125.116 297.3 125.176 297.3 125.176V125.189C297.23 125.215 297.159 125.237 297.091 125.267C293.284 126.969 293.284 130.452 293.284 130.452L295.633 137.419C295.633 137.419 296.29 137.45 297.273 137.36L297.205 168.911L297.546 169.107C300.096 170.57 303.23 170.577 305.785 169.122L306.156 168.911C306.156 168.911 306.612 156.236 306.781 139.009C306.925 124.345 299.957 124.623 297.88 125.029Z" fill="#161616"/>
<path d="M292.335 130.003L293.743 128.148C293.922 127.912 294.252 127.857 294.495 128.024C296.032 129.081 301.043 132.915 300.359 137.532L292.335 130.003Z" fill="white"/>
<path d="M286.428 159.421C286.43 159.403 287.866 159.242 287.953 159.226C289.208 158.996 290.441 158.618 291.61 158.107C295.226 156.526 298.005 153.61 299.381 149.903C300.367 147.242 300.645 144.362 300.537 141.54C300.38 137.402 299.424 132.88 295.78 130.351C292.676 128.198 291.156 128.852 291.156 128.852C291.156 128.852 286.429 159.411 286.428 159.421Z" fill="#161616"/>
<path d="M287.272 154.12L280.951 153.719C280.951 153.719 280.081 163.602 280.057 163.601C280.057 163.601 280.396 165.604 283.198 165.826C286.001 166.046 286.823 164.029 286.823 164.029C286.803 163.972 287.272 154.12 287.272 154.12Z" fill="#F8D0B7"/>
<path d="M283.425 161.778C281.35 161.614 280.598 160.887 280.346 160.521C280.608 157.621 280.951 153.719 280.951 153.719L287.272 154.12C287.272 154.12 287.093 157.895 286.961 160.785C286.789 161.01 285.904 161.973 283.425 161.778Z" fill="#EFBDAC"/>
<path d="M284.569 157.28L278.247 156.879C278.247 156.879 278.087 158.139 277.946 159.209C277.925 159.365 279.724 159.755 279.919 159.798C281.451 160.141 282.987 160.039 284.518 159.751C284.538 158.647 284.569 157.28 284.569 157.28Z" fill="#CF9166"/>
<path d="M270.612 139.182C270.789 137.912 270.924 136.835 271.946 135.635C274.444 132.701 278.432 131.026 282.26 131.032C288.018 131.042 293.989 133.249 295.528 139.272C296.055 141.335 296.068 143.499 295.864 145.618C295.543 148.961 294.648 152.34 292.631 155.026C290.213 158.243 286.219 160.215 282.195 160.178C276.049 160.121 271.131 156.819 269.478 151.458C268.288 147.6 269.399 144.577 270.318 140.824C270.463 140.232 270.541 139.692 270.612 139.182Z" fill="#F8D0B7"/>
<path d="M298.006 146.317C298.02 146.335 298.038 146.36 298.038 146.36C298.038 146.36 298.035 146.334 298.029 146.284C298.021 146.236 298.01 146.161 297.98 146.07C297.948 145.98 297.906 145.866 297.82 145.746C297.737 145.626 297.618 145.49 297.431 145.377C297.338 145.319 297.229 145.269 297.109 145.227C297.048 145.207 296.985 145.189 296.919 145.177L296.869 145.167L296.813 145.158L296.727 145.146C296.675 145.136 296.604 145.131 296.53 145.128C296.455 145.122 296.383 145.121 296.315 145.124C296.244 145.124 296.173 145.127 296.102 145.135C296.031 145.142 295.959 145.149 295.889 145.162C295.807 145.176 295.728 145.199 295.648 145.219C295.654 144.678 295.636 144.138 295.582 143.602C296.283 143.503 297.067 143.571 297.936 143.936C301.598 145.474 299.785 152.497 294.006 152.789C294.155 152.478 294.29 152.163 294.415 151.844C297.511 150.946 298.65 147.897 298.006 146.317Z" fill="#F8D0B7"/>
<path d="M296.21 145.607C296.262 145.596 296.314 145.589 296.366 145.583C296.419 145.574 296.468 145.57 296.514 145.567C296.559 145.564 296.606 145.56 296.668 145.563L296.756 145.564L296.778 145.565H296.788H296.794C296.789 145.564 296.808 145.566 296.783 145.563H296.785L296.819 145.566C296.865 145.568 296.908 145.575 296.952 145.58C297.039 145.594 297.122 145.615 297.199 145.643C297.509 145.762 297.718 145.968 297.846 146.114C297.909 146.189 297.958 146.249 297.989 146.294C298 146.308 297.999 146.306 298.006 146.316C298.65 147.896 297.511 150.946 294.415 151.843C295.005 150.34 295.354 148.749 295.528 147.166C295.578 146.712 295.613 146.256 295.634 145.799C295.773 145.74 295.913 145.677 296.055 145.641C296.106 145.626 296.158 145.617 296.21 145.607Z" fill="#FFB7A1"/>
<path d="M296.102 145.135C296.173 145.126 296.244 145.124 296.315 145.123C296.384 145.12 296.455 145.122 296.529 145.127C296.604 145.131 296.675 145.136 296.728 145.146L296.813 145.158L296.869 145.167L296.919 145.177C296.985 145.189 297.049 145.208 297.109 145.227C297.23 145.269 297.338 145.319 297.431 145.377C297.618 145.49 297.737 145.625 297.821 145.746C297.906 145.866 297.948 145.979 297.979 146.07C298.01 146.161 298.021 146.236 298.029 146.284C298.035 146.334 298.038 146.36 298.038 146.36C298.038 146.36 298.02 146.335 298.007 146.317C297.999 146.307 298 146.309 297.989 146.293C297.959 146.249 297.909 146.189 297.846 146.115C297.718 145.968 297.509 145.762 297.199 145.644C297.123 145.615 297.038 145.595 296.952 145.581C296.908 145.576 296.865 145.569 296.819 145.566L296.786 145.564H296.783C296.808 145.566 296.788 145.564 296.793 145.565H296.788H296.777L296.756 145.564L296.669 145.563C296.605 145.56 296.558 145.564 296.513 145.568C296.467 145.57 296.419 145.574 296.365 145.583C296.313 145.59 296.262 145.596 296.21 145.607C296.158 145.617 296.106 145.626 296.055 145.642C295.912 145.678 295.773 145.74 295.633 145.799C295.643 145.607 295.646 145.413 295.648 145.219C295.728 145.199 295.807 145.176 295.888 145.162C295.959 145.149 296.031 145.142 296.102 145.135Z" fill="#FFA792"/>
<path d="M279.498 145.393C279.498 145.393 279.658 148.156 278.377 147.86C275.895 147.29 275.606 152.657 279.493 150.858C280.96 150.18 280.735 145.495 280.735 145.495L279.498 145.393Z" fill="#F48470"/>
<path d="M275.215 152.724C275.141 153.875 274.134 154.749 272.962 154.674C271.791 154.6 270.9 153.607 270.972 152.455C271.046 151.304 272.055 150.431 273.226 150.505C274.397 150.58 275.288 151.573 275.215 152.724Z" fill="#FFB7A1"/>
<path d="M290.51 152.347C290.437 153.499 289.428 154.372 288.256 154.297C287.086 154.223 286.196 153.231 286.267 152.079C286.341 150.928 287.349 150.055 288.52 150.129C289.691 150.203 290.583 151.197 290.51 152.347Z" fill="#FFB7A1"/>
<path d="M271.442 143.713C271.442 143.713 271.502 143.635 271.632 143.521C271.697 143.464 271.777 143.392 271.877 143.326C271.974 143.255 272.09 143.183 272.221 143.111C272.351 143.038 272.497 142.967 272.654 142.903C272.814 142.841 272.983 142.775 273.166 142.73C273.346 142.676 273.537 142.642 273.732 142.611C273.927 142.575 274.129 142.572 274.328 142.554C274.528 142.554 274.73 142.556 274.926 142.568C275.122 142.588 275.314 142.613 275.497 142.642C275.68 142.683 275.855 142.727 276.019 142.77C276.185 142.817 276.333 142.88 276.471 142.932C276.609 142.987 276.735 143.035 276.84 143.097C276.946 143.153 277.038 143.207 277.113 143.25C277.26 143.335 277.341 143.392 277.341 143.392C277.341 143.392 277.239 143.391 277.069 143.376C276.984 143.368 276.882 143.36 276.765 143.346C276.652 143.328 276.519 143.322 276.377 143.311C276.236 143.302 276.086 143.277 275.927 143.269C275.766 143.261 275.599 143.252 275.428 143.236C275.255 143.231 275.079 143.231 274.898 143.221C274.719 143.223 274.538 143.224 274.356 143.227C274.264 143.231 274.174 143.237 274.084 143.242C273.993 143.247 273.903 143.247 273.815 143.259C273.726 143.269 273.638 143.276 273.551 143.283C273.462 143.288 273.379 143.307 273.293 143.316C273.123 143.333 272.96 143.363 272.803 143.387C272.724 143.397 272.651 143.418 272.577 143.43C272.503 143.445 272.432 143.456 272.364 143.474C272.228 143.503 272.102 143.531 271.991 143.56C271.877 143.586 271.781 143.616 271.698 143.637C271.62 143.662 271.553 143.676 271.511 143.692C271.465 143.706 271.442 143.713 271.442 143.713Z" fill="#161616"/>
<path d="M288.225 142.794C288.225 142.794 288.163 142.718 288.03 142.607C287.961 142.555 287.881 142.485 287.78 142.421C287.679 142.354 287.56 142.285 287.429 142.216C287.297 142.149 287.149 142.084 286.987 142.024C286.825 141.968 286.654 141.907 286.47 141.869C286.289 141.819 286.097 141.792 285.901 141.767C285.705 141.738 285.504 141.741 285.304 141.729C285.103 141.736 284.904 141.744 284.707 141.763C284.512 141.789 284.32 141.821 284.137 141.857C283.956 141.903 283.783 141.952 283.62 142.001C283.458 142.052 283.311 142.121 283.174 142.176C283.038 142.236 282.914 142.29 282.811 142.353C282.707 142.413 282.617 142.47 282.545 142.515C282.398 142.606 282.32 142.665 282.32 142.665C282.32 142.665 282.421 142.662 282.591 142.64C282.675 142.631 282.778 142.619 282.894 142.601C283.008 142.579 283.138 142.569 283.28 142.552C283.42 142.539 283.57 142.511 283.73 142.496C283.89 142.484 284.055 142.468 284.226 142.447C284.399 142.438 284.577 142.43 284.756 142.414C284.935 142.41 285.116 142.407 285.298 142.402C285.389 142.404 285.48 142.406 285.571 142.409C285.659 142.411 285.749 142.408 285.84 142.418C285.928 142.425 286.017 142.43 286.104 142.432C286.192 142.435 286.278 142.451 286.362 142.457C286.534 142.469 286.697 142.494 286.855 142.513C286.934 142.519 287.008 142.539 287.082 142.549C287.156 142.56 287.229 142.57 287.296 142.584C287.433 142.61 287.561 142.633 287.672 142.659C287.787 142.681 287.884 142.707 287.966 142.725C288.047 142.749 288.113 142.761 288.157 142.775C288.201 142.786 288.225 142.794 288.225 142.794Z" fill="#050607"/>
<path d="M284.205 145.503C283.991 146.293 284.461 147.093 285.251 147.291C286.041 147.489 286.855 147.009 287.067 146.219C287.281 145.43 286.813 144.629 286.022 144.431C285.231 144.234 284.418 144.714 284.205 145.503Z" fill="#050607"/>
<path d="M284.801 145.239C284.724 145.525 284.918 145.821 285.235 145.9C285.552 145.98 285.872 145.813 285.949 145.526C286.026 145.241 285.831 144.944 285.514 144.866C285.197 144.785 284.878 144.954 284.801 145.239Z" fill="white"/>
<path d="M275.803 145.16C276.016 145.949 275.547 146.75 274.757 146.948C273.966 147.146 273.153 146.666 272.94 145.876C272.727 145.086 273.195 144.285 273.986 144.088C274.776 143.891 275.59 144.371 275.803 145.16Z" fill="#050607"/>
<path d="M275.207 144.895C275.284 145.181 275.089 145.477 274.773 145.556C274.455 145.636 274.136 145.469 274.059 145.182C273.982 144.897 274.177 144.6 274.493 144.522C274.81 144.441 275.13 144.61 275.207 144.895Z" fill="white"/>
<path d="M289.506 138.738C289.506 138.738 294.463 153.911 289.928 158.448C289.928 158.448 296.516 154.837 297.116 138.278L289.506 138.738Z" fill="#161616"/>
<path d="M296.189 141.9C297.891 141.626 298.01 134.365 297.752 133.375C296.864 129.972 292.005 127.881 289.038 126.768C284.365 125.016 278.491 124.729 274.264 127.764C271.999 129.392 270.887 131.682 269.831 134.178C269.636 134.638 267.525 140.442 267.513 140.442C267.513 140.442 283.604 141.261 283.477 141.254L284.998 141.331C284.998 141.331 294.992 142.092 296.189 141.9Z" fill="#161616"/>
<path d="M308.832 187.044H308.727C307.498 187.049 306.301 187.481 305.24 188.115C306.367 189.592 307.633 190.952 309.262 191.898C309.369 191.961 309.473 192.015 309.573 192.066C309.783 191.824 309.979 191.571 310.153 191.301C311.284 189.552 311.444 187.084 308.832 187.044Z" fill="#E8B79E"/>
<path d="M273.171 231.843C273.171 231.843 273.977 256.605 274.031 258.911C274.084 261.216 277.29 281.853 277.678 286.91C278.066 291.967 276.677 302.356 275.552 306.499L274.186 310.013C274.186 310.013 278.568 311.766 280.271 311.003C282.95 309.801 283.488 305.543 284.163 303.038C284.878 300.382 285.408 297.631 285.295 294.868C285.185 292.211 283.725 290.194 283.169 287.661C281.654 280.764 284.234 273.627 284.602 266.726C284.931 260.569 284.103 254.426 283.182 248.353C282.322 242.688 284.944 237.671 284.673 232.068C284.673 232.068 274.225 224.626 273.053 230.669" fill="#EFC8B1"/>
<path d="M275.069 307.739C275.001 308.044 275.896 308.367 276.099 308.458C277.574 309.127 279.915 309.772 281.131 308.274C282.615 306.45 282.956 303.286 283.585 301.084C284.296 298.591 285.037 295.725 284.816 293.107L284.712 291.873C284.712 291.873 288.184 293.994 287.966 296.939C287.747 299.884 284.785 304.822 284.6 307.902C284.486 309.8 283.563 311.688 282.012 312.815C279.643 314.538 275.55 314.416 273.017 313.116C272.08 312.636 271.341 310.403 272.568 309.838C274.098 309.135 276.574 301.943 276.315 301.701L275.552 306.498C275.552 306.498 275.069 307.736 275.069 307.739Z" fill="#122738"/>
<path d="M287.801 297.667C287.801 297.667 286.818 304.006 287.291 307.553L286.259 307.894L285.229 303.138L287.801 297.667Z" fill="#312E2F"/>
<path d="M296.667 297.667C296.667 297.667 295.836 307.157 296.311 310.705L294.802 310.747L294.095 303.138L296.667 297.667Z" fill="#0C1B26"/>
<path d="M281.023 231.843C281.023 231.843 282.843 256.605 282.896 258.911C282.95 261.216 286.155 281.853 286.543 286.91C286.932 291.967 285.543 302.356 284.418 306.499L283.052 310.013C283.052 310.013 287.434 311.766 289.137 311.003C291.816 309.801 292.354 305.543 293.029 303.038C293.744 300.382 294.274 297.631 294.16 294.868C294.051 292.211 292.591 290.194 292.034 287.661C290.52 280.764 293.1 273.627 293.468 266.726C293.797 260.569 292.969 254.426 292.048 248.353C291.188 242.688 293.81 237.671 293.539 232.068C293.539 232.068 282.078 224.626 280.905 230.669" fill="#F8D0B7"/>
<path d="M283.935 307.739C283.867 308.044 284.762 308.367 284.965 308.458C286.44 309.127 288.781 309.772 289.997 308.274C291.482 306.45 291.822 303.286 292.45 301.084C293.162 298.591 293.903 295.725 293.682 293.107L293.578 291.873C293.578 291.873 297.05 293.994 296.832 296.939C296.613 299.884 293.651 304.822 293.466 307.902C293.352 309.8 292.43 311.688 290.879 312.815C288.509 314.538 284.416 314.416 281.883 313.116C280.946 312.636 280.207 310.403 281.435 309.838C282.965 309.135 285.44 301.943 285.181 301.701L284.418 306.498C284.418 306.498 283.936 307.736 283.935 307.739Z" fill="#122738"/>
<path d="M292.607 178.638C293.469 174.567 296.482 170.406 296.667 169.492C291.916 164.745 287.675 163.06 286.677 162.749L280.77 162.775C279.189 163.417 277.596 164.028 276.011 164.657C275.415 164.893 274.858 165.018 274.482 165.536C274.022 166.171 273.788 167.259 273.484 167.995C272.654 170.007 271.801 172.05 271.391 174.206C271.127 175.598 271.456 177.098 272.02 178.638H292.607Z" fill="#F8D0B7"/>
<path d="M298.523 209.737C296.648 204.37 294.117 199.188 293.171 193.543C289.883 194.937 277.38 194.511 274.943 192.355C274.41 199.369 270.813 206.074 269.105 212.903C268.037 217.171 267.146 221.51 266.986 225.917C266.82 230.528 268.481 244.524 268.819 249.675C282.36 258.437 297.749 250.033 298.363 248.444C301.581 240.113 301.424 227.651 300.628 218.677C300.353 215.576 299.534 212.63 298.523 209.737Z" fill="#122738"/>
<path d="M269.104 212.903C269.033 213.185 268.966 213.469 268.897 213.752C273.71 216.327 292.465 217.877 299.55 212.983C299.246 211.891 298.898 210.81 298.523 209.737C296.721 204.582 294.319 199.594 293.294 194.206L290.426 194.141C287.463 194.483 283.193 194.4 279.823 193.901L275.887 193.811C275.887 193.811 274.469 204.559 269.902 210.104C269.61 211.036 269.338 211.968 269.104 212.903Z" fill="#0B1C28"/>
<path d="M280.336 173.008C280.324 172.805 280.3 172.608 280.273 172.41C280.268 172.377 280.263 172.345 280.257 172.312C279.911 169.992 278.584 168.051 276.878 166.757C274.736 165.207 272.454 163.872 270.208 162.483C265.699 159.747 261.833 157.544 257.271 154.894C255.857 152.284 254.421 149.691 252.926 147.139C252.171 145.864 251.417 144.589 250.568 143.379C249.612 142.264 248.915 140.973 248.233 139.644C246.856 137.012 245.67 134.205 243.774 131.934C242.739 130.744 241.612 129.659 240.433 128.637C240.54 128.822 244.109 135.046 243.743 141.283C243.743 141.283 243.736 141.285 243.731 141.286C244.159 141.538 244.584 141.803 245.012 142.055L245.475 142.335L245.705 142.475C245.791 142.519 245.864 142.572 245.862 142.619C245.982 142.868 246.101 143.291 246.207 143.64C246.632 145.117 247.07 146.598 247.589 148.038C248.623 150.912 249.918 153.681 251.713 156.047C252.61 157.22 253.617 158.322 254.767 159.219C255.897 160.133 257.044 161.024 258.199 161.903C260.512 163.659 262.19 164.879 264.61 166.482C267.032 168.081 269.505 169.608 272.086 170.953C274.693 172.248 277.358 173.467 280.35 173.922C280.353 173.87 280.346 173.82 280.348 173.768C280.356 173.623 280.361 173.36 280.336 173.008Z" fill="#EFC8B1"/>
<path d="M242.066 131.956C241.985 132.854 241.484 135.147 241.145 135.963C240.5 135.865 239.869 135.599 239.309 135.262C238.688 134.909 238.21 134.387 237.611 133.926C237.309 133.707 236.983 133.513 236.614 133.387C236.242 133.288 235.821 133.168 235.33 133.481C235.273 133.525 235.193 133.592 235.156 133.72C235.108 133.853 235.145 133.893 235.145 133.981C235.178 134.1 235.223 134.2 235.271 134.288C235.371 134.462 235.48 134.62 235.596 134.767C235.826 135.065 236.074 135.338 236.326 135.606C237.317 136.685 238.435 137.636 239.461 138.65L240.218 139.441C240.491 139.712 240.811 139.92 241.142 140.094C241.804 140.442 242.514 140.655 243.157 140.959C243.387 141.076 243.611 141.213 243.837 141.348V134.474C242.961 134.214 242.838 132.401 242.066 131.956Z" fill="#EFC8B1"/>
<path d="M264.633 159.166C264.633 159.166 265.833 161.114 265.452 165.024C265.072 168.934 263.443 168.174 263.443 168.174C263.443 168.174 267.516 171.269 271.589 173.442C275.662 175.614 275.499 165.241 275.499 165.241C275.499 165.241 265.062 157.871 264.633 159.166Z" fill="white"/>
<path d="M274.863 193.533C274.848 193.811 274.725 194.162 274.922 194.297C281.179 198.6 293.312 194.112 293.226 193.579C292.805 191.012 292.736 188.36 293.23 185.798C294.34 180.028 298.598 174.435 296.735 168.363C296.728 168.341 296.721 168.32 296.714 168.298C296.086 166.428 289.906 164.259 289.367 163.91C289.549 164.385 289.05 164.934 288.879 165.148C288.037 166.196 286.711 166.85 285.446 167.222C283.977 167.654 282.436 167.828 280.907 167.769C280.05 167.735 279.189 167.626 278.348 167.454C277.833 167.349 277.196 167.184 276.851 166.76C276.219 165.981 276.817 164.847 277.208 164.093C277.208 164.093 276.459 164.373 275.5 164.391C274.309 164.414 270.667 161.998 270.667 161.998C269.996 164.062 271.022 172.279 270.224 174.28C269.721 175.539 269.458 176.925 269.704 178.259C270.101 180.414 271.715 182.053 272.406 184.095C273.283 186.687 275.012 190.71 274.863 193.533Z" fill="white"/>
<path d="M274.631 191.06C274.631 191.06 272.876 204.38 266.975 209.015C262.556 212.484 290.222 216.424 298.645 209.978C299.004 209.703 299.056 209.18 298.764 208.836C298.299 208.289 297.584 207.155 296.666 204.804C294.96 200.434 292.967 191.475 292.967 191.475L274.631 191.06Z" fill="white"/>
<path d="M311.741 191.939C311.292 192.502 310.515 192.627 309.262 191.898C307.568 190.914 306.264 189.483 305.103 187.938C303.622 185.967 301.86 184.219 300.176 182.414C297.9 179.976 295.514 177.582 293.426 174.98C291.72 172.856 290.36 171.242 291.157 168.277C291.278 167.825 291.454 167.376 291.763 167.021C292.233 166.482 292.978 166.342 293.658 166.423C295.353 166.627 296.486 167.82 297.55 169.007C298.658 170.244 299.889 171.382 301.049 172.571C303.527 175.112 305.949 177.728 307.993 180.634C309.325 182.529 310.744 184.404 311.668 186.546C312.606 188.723 312.657 190.792 311.741 191.939Z" fill="#EFC8B1"/>
<path d="M308.832 187.044H308.727C307.498 187.049 306.301 187.481 305.24 188.115C306.367 189.592 307.633 190.952 309.262 191.898C309.369 191.961 309.473 192.015 309.573 192.066C309.783 191.824 309.979 191.571 310.153 191.301C311.284 189.552 311.444 187.084 308.832 187.044Z" fill="#E8B79E"/>
<path d="M309.999 187.593C309.965 187.598 309.93 187.603 309.895 187.608C308.527 187.815 307.277 188.549 306.246 189.476C304.054 191.446 302.25 194.035 300.287 196.243C298.758 197.962 297.228 199.868 295.539 201.536C295.644 201.649 295.734 201.776 295.801 201.923C296.461 203.384 296.708 204.291 297.617 205.613C299.263 202.656 306.152 198.375 309.983 194.289C310.74 193.481 311.465 192.621 311.924 191.614C312.788 189.72 312.589 187.254 309.999 187.593Z" fill="#EFC8B1"/>
<path d="M295.442 203.923C295.439 203.927 293.578 206.077 293.219 206.041C292.86 206.006 292.387 205.545 292.387 205.545L294.828 202.366C294.828 202.366 292.253 204.806 291.628 204.846C291.001 204.888 290.534 204.376 290.534 204.376L293.832 200.92C293.832 200.92 291.658 203.502 290.909 203.738C290.159 203.975 289.584 203.503 289.584 203.503L292.77 199.622L292.656 200.233C292.656 200.233 291.087 201.424 290.476 201.311C289.866 201.199 289.383 200.84 289.383 200.84C289.383 200.84 291.055 199.659 291.917 198.811C292.779 197.965 293.646 198.103 293.646 198.103C295.189 199.379 296.147 201.325 297.131 203.058C297.892 204.397 297.912 206.963 297.912 206.963C297.912 206.963 297.434 207.83 295.442 203.923Z" fill="#F8D0B7"/>
<path d="M272.062 138.585C272.062 138.585 269.325 143.852 269.478 151.458C269.478 151.458 264.356 144.757 271.041 135.182L272.062 138.585Z" fill="#161616"/>
<path d="M298.928 182.656C298.928 182.656 305.022 181.788 306.256 177.225C306.256 177.225 297.434 167.096 293.626 165.842C289.819 164.59 288.153 168.971 289.964 172.048C291.774 175.126 298.928 182.656 298.928 182.656Z" fill="white"/>
<path d="M270.301 174.043C270.301 174.043 270.565 172.72 271.624 171.254C272.683 169.788 270.559 170.693 268.504 171.644C268.504 171.644 270.315 172.654 270.313 173.307C270.311 173.673 270.301 174.043 270.301 174.043Z" fill="#E1E4E5"/>
<path d="M279.808 154.62C280.025 154.62 280.212 154.472 280.267 154.262C280.484 153.422 281.24 152.802 282.148 152.802C283.055 152.802 283.811 153.422 284.028 154.262C284.082 154.472 284.27 154.62 284.488 154.62C284.792 154.62 285.033 154.335 284.959 154.039C284.641 152.778 283.507 151.844 282.148 151.844C280.788 151.844 279.654 152.778 279.337 154.039C279.262 154.335 279.502 154.62 279.808 154.62Z" fill="#F05B4E"/>
<defs>
<filter id="filter0_d_29_30" x="161.463" y="101.062" width="36.3373" height="36.3373" filterUnits="userSpaceOnUse" color-interpolation-filters="sRGB">
<feFlood flood-opacity="0" result="BackgroundImageFix"/>
<feColorMatrix in="SourceAlpha" type="matrix" values="0 0 0 0 0 0 0 0 0 0 0 0 0 0 0 0 0 0 127 0" result="hardAlpha"/>
<feMorphology radius="6.33402" operator="erode" in="SourceAlpha" result="effect1_dropShadow_29_30"/>
<feOffset dy="9.50103"/>
<feGaussianBlur stdDeviation="10.5567"/>
<feColorMatrix type="matrix" values="0 0 0 0 0.243137 0 0 0 0 0.741176 0 0 0 0 1 0 0 0 0.45 0"/>
<feBlend mode="normal" in2="BackgroundImageFix" result="effect1_dropShadow_29_30"/>
<feBlend mode="normal" in="SourceGraphic" in2="effect1_dropShadow_29_30" result="shape"/>
</filter>
<filter id="filter1_d_29_30" x="344.935" y="188.28" width="36.3373" height="36.3373" filterUnits="userSpaceOnUse" color-interpolation-filters="sRGB">
<feFlood flood-opacity="0" result="BackgroundImageFix"/>
<feColorMatrix in="SourceAlpha" type="matrix" values="0 0 0 0 0 0 0 0 0 0 0 0 0 0 0 0 0 0 127 0" result="hardAlpha"/>
<feMorphology radius="6.33402" operator="erode" in="SourceAlpha" result="effect1_dropShadow_29_30"/>
<feOffset dy="9.50103"/>
<feGaussianBlur stdDeviation="10.5567"/>
<feColorMatrix type="matrix" values="0 0 0 0 0.243137 0 0 0 0 0.741176 0 0 0 0 1 0 0 0 0.45 0"/>
<feBlend mode="normal" in2="BackgroundImageFix" result="effect1_dropShadow_29_30"/>
<feBlend mode="normal" in="SourceGraphic" in2="effect1_dropShadow_29_30" result="shape"/>
</filter>
<filter id="filter2_d_29_30" x="272.631" y="256.969" width="36.3373" height="36.3373" filterUnits="userSpaceOnUse" color-interpolation-filters="sRGB">
<feFlood flood-opacity="0" result="BackgroundImageFix"/>
<feColorMatrix in="SourceAlpha" type="matrix" values="0 0 0 0 0 0 0 0 0 0 0 0 0 0 0 0 0 0 127 0" result="hardAlpha"/>
<feMorphology radius="6.33402" operator="erode" in="SourceAlpha" result="effect1_dropShadow_29_30"/>
<feOffset dy="9.50103"/>
<feGaussianBlur stdDeviation="10.5567"/>
<feColorMatrix type="matrix" values="0 0 0 0 0.243137 0 0 0 0 0.741176 0 0 0 0 1 0 0 0 0.45 0"/>
<feBlend mode="normal" in2="BackgroundImageFix" result="effect1_dropShadow_29_30"/>
<feBlend mode="normal" in="SourceGraphic" in2="effect1_dropShadow_29_30" result="shape"/>
</filter>
<filter id="filter3_d_29_30" x="143.839" y="251.546" width="43.5677" height="43.5678" filterUnits="userSpaceOnUse" color-interpolation-filters="sRGB">
<feFlood flood-opacity="0" result="BackgroundImageFix"/>
<feColorMatrix in="SourceAlpha" type="matrix" values="0 0 0 0 0 0 0 0 0 0 0 0 0 0 0 0 0 0 127 0" result="hardAlpha"/>
<feMorphology radius="6.33402" operator="erode" in="SourceAlpha" result="effect1_dropShadow_29_30"/>
<feOffset dy="9.50103"/>
<feGaussianBlur stdDeviation="10.5567"/>
<feColorMatrix type="matrix" values="0 0 0 0 0.243137 0 0 0 0 0.741176 0 0 0 0 1 0 0 0 0.45 0"/>
<feBlend mode="normal" in2="BackgroundImageFix" result="effect1_dropShadow_29_30"/>
<feBlend mode="normal" in="SourceGraphic" in2="effect1_dropShadow_29_30" result="shape"/>
</filter>
<filter id="filter4_d_29_30" x="268.564" y="230.759" width="37.693" height="37.693" filterUnits="userSpaceOnUse" color-interpolation-filters="sRGB">
<feFlood flood-opacity="0" result="BackgroundImageFix"/>
<feColorMatrix in="SourceAlpha" type="matrix" values="0 0 0 0 0 0 0 0 0 0 0 0 0 0 0 0 0 0 127 0" result="hardAlpha"/>
<feMorphology radius="6.33402" operator="erode" in="SourceAlpha" result="effect1_dropShadow_29_30"/>
<feOffset dy="9.50103"/>
<feGaussianBlur stdDeviation="10.5567"/>
<feColorMatrix type="matrix" values="0 0 0 0 0.243137 0 0 0 0 0.741176 0 0 0 0 1 0 0 0 0.45 0"/>
<feBlend mode="normal" in2="BackgroundImageFix" result="effect1_dropShadow_29_30"/>
<feBlend mode="normal" in="SourceGraphic" in2="effect1_dropShadow_29_30" result="shape"/>
</filter>
<filter id="filter5_d_29_30" x="50.7467" y="230.306" width="37.693" height="37.693" filterUnits="userSpaceOnUse" color-interpolation-filters="sRGB">
<feFlood flood-opacity="0" result="BackgroundImageFix"/>
<feColorMatrix in="SourceAlpha" type="matrix" values="0 0 0 0 0 0 0 0 0 0 0 0 0 0 0 0 0 0 127 0" result="hardAlpha"/>
<feMorphology radius="6.33402" operator="erode" in="SourceAlpha" result="effect1_dropShadow_29_30"/>
<feOffset dy="9.50103"/>
<feGaussianBlur stdDeviation="10.5567"/>
<feColorMatrix type="matrix" values="0 0 0 0 0.243137 0 0 0 0 0.741176 0 0 0 0 1 0 0 0 0.45 0"/>
<feBlend mode="normal" in2="BackgroundImageFix" result="effect1_dropShadow_29_30"/>
<feBlend mode="normal" in="SourceGraphic" in2="effect1_dropShadow_29_30" result="shape"/>
</filter>
<filter id="filter6_d_29_30" x="225.633" y="267.363" width="33.6259" height="33.6259" filterUnits="userSpaceOnUse" color-interpolation-filters="sRGB">
<feFlood flood-opacity="0" result="BackgroundImageFix"/>
<feColorMatrix in="SourceAlpha" type="matrix" values="0 0 0 0 0 0 0 0 0 0 0 0 0 0 0 0 0 0 127 0" result="hardAlpha"/>
<feMorphology radius="6.33402" operator="erode" in="SourceAlpha" result="effect1_dropShadow_29_30"/>
<feOffset dy="9.50103"/>
<feGaussianBlur stdDeviation="10.5567"/>
<feColorMatrix type="matrix" values="0 0 0 0 0.243137 0 0 0 0 0.741176 0 0 0 0 1 0 0 0 0.45 0"/>
<feBlend mode="normal" in2="BackgroundImageFix" result="effect1_dropShadow_29_30"/>
<feBlend mode="normal" in="SourceGraphic" in2="effect1_dropShadow_29_30" result="shape"/>
</filter>
<linearGradient id="paint0_linear_29_30" x1="287.41" y1="262.247" x2="294.759" y2="262.935" gradientUnits="userSpaceOnUse">
<stop stop-color="#FCC822"/>
<stop offset="1" stop-color="#FFDD72"/>
</linearGradient>
<linearGradient id="paint1_linear_29_30" x1="283.343" y1="236.037" x2="292.161" y2="236.862" gradientUnits="userSpaceOnUse">
<stop stop-color="#FCC822"/>
<stop offset="1" stop-color="#FFDD72"/>
</linearGradient>
</defs>
</svg>
